<?xml version="1.0" encoding="UTF-8" standalone="no"?>
<svg
   xmlns:dc="http://purl.org/dc/elements/1.1/"
   xmlns:cc="http://creativecommons.org/ns#"
   xmlns:rdf="http://www.w3.org/1999/02/22-rdf-syntax-ns#"
   xmlns:svg="http://www.w3.org/2000/svg"
   xmlns="http://www.w3.org/2000/svg"
   viewBox="0 0 4266.6665 2666.6667"
   height="2666.6667"
   width="4266.6665"
   xml:space="preserve"
   id="svg2"
   version="1.1"><metadata
     id="metadata8"><rdf:RDF><cc:Work
         rdf:about=""><dc:format>image/svg+xml</dc:format><dc:type
           rdf:resource="http://purl.org/dc/dcmitype/StillImage" /></cc:Work></rdf:RDF></metadata><defs
     id="defs6" /><g
     transform="matrix(1.3333333,0,0,-1.3333333,0,2666.6667)"
     id="g10"><g
       transform="scale(0.1)"
       id="g12"><g
         transform="scale(1.96319)"
         id="g14"><path
           id="path16"
           style="fill:#ffffff;fill-opacity:1;fill-rule:nonzero;stroke:none"
           d="M 16300,0 H 0 V 10187.5 H 16300 V 0" /></g><g
         transform="scale(1.8751)"
         id="g18"><path
           id="path20"
           style="fill:#edf4ff;fill-opacity:1;fill-rule:nonzero;stroke:none"
           d="m 16283.3,3616.34 c -10.2,-511.65 -123.9,-1014.08 -302.6,-1491.97 -25.9,-67.73 -168.7,-500.78 -233.7,-500.78 -101.6,-0.05 -203.2,-0.05 -304.8,-0.05 -1126.7,-0.21 -2253.4,-0.37 -3380.1,-0.53 -2220.32,-0.32 -4440.63,-0.64 -6660.94,-0.91 -1314.9,-0.16 -2629.78,-1.01 -3944.67,-0.21 -86.24,0.05 -158.08,111.41 -207.6,170.28 -91.17,108.37 -154.55,231.51 -193.05,362.12 -52.45,177.96 -85.224,441.15 12.16,775.9 52.57,180.74 165.29,362.97 250.59,499.82 183.14,293.85 421.53,546.26 684.77,769.5 302.59,256.58 691.89,492.83 840.93,879.8 220.41,572.15 -157.8,1133.59 -106.18,1710.13 86.05,961.21 1041.17,1679.62 1880.2,2003.93 650.11,251.28 1370.71,312.08 2062.35,290.06 338.44,-10.77 676.39,-44.17 1010.19,-100.92 304.95,-51.85 664.07,-104.85 943.63,-244.65 599.76,-221.94 1118.93,-582.72 1558.92,-1044 213.7,-224.08 403.3,-475.66 636.6,-680.26 278.4,-244.14 563.3,-235.36 909.9,-168.14 659.5,129.38 1303.8,270.37 1972.3,107.79 647.4,-157.46 1203.9,-550.72 1663.4,-1021.91 607.6,-623.14 924.4,-1445.71 907.7,-2315 -0.3,-12.64 0.2,14.03 0.8,40.7 0.8,43.62 1.6,87.19 -0.8,-40.7" /></g><path
         id="path22"
         style="fill:#e1ecfe;fill-opacity:1;fill-rule:nonzero;stroke:none"
         d="m 7339.37,7016.5 c 0,0 -947.21,234.7 -1319.3,-353.3 C 5647.98,6075.1 4903.8,6052.3 4513.11,5580 c -390.7,-472.3 -688.37,-1323.3 204.64,-1744.3 893.02,-421 3114.21,196.9 3114.21,196.9 l 424.54,2739.7 -917.13,244.2" /><path
         id="path24"
         style="fill:#acd29a;fill-opacity:1;fill-rule:nonzero;stroke:none"
         d="m 8747.21,9665.7 c 0,0 -126.86,781.7 -796.66,1100.2 -402.05,191.2 -1609.64,333.6 -1572.43,-522.2 29.56,-680 -651.2,-596.8 -384.52,-1387.8 229.62,-681 1010.44,-417 1010.44,-417 l 1743.17,1226.8" /><g
         transform="scale(1.83914)"
         id="g26"><path
           id="path28"
           style="fill:#acd29a;fill-opacity:1;fill-rule:nonzero;stroke:none"
           d="m 15884.2,2764.23 c -223.7,178.68 -494.2,174.87 -733.8,171.06 -278.7,-4.4 -515.5,-8.81 -588.1,274.05 -134.9,526.06 -772,565.75 -772,565.75 l -650.6,-2120.24 c 868.2,0.17 1736.3,0.28 2604.5,0.44 103.5,0 207.1,0 310.7,0.05 66.3,0 211.9,441.52 238.2,510.57 2.3,6.25 4.6,12.45 6.9,18.7 -59.3,165.52 -191.1,400.14 -415.8,579.62" /></g><g
         transform="scale(1.55597)"
         id="g30"><path
           id="path32"
           style="fill:#98baf4;fill-opacity:1;fill-rule:nonzero;stroke:none"
           d="m 16300,1949.59 h -5078.5 v 6255.2 H 16300 v -6255.2" /></g><g
         transform="scale(1.55597)"
         id="g34"><path
           id="path36"
           style="fill:#edf4ff;fill-opacity:1;fill-rule:nonzero;stroke:none"
           d="m 16300,7217.54 h -4572 v 681.36 h 4572 v -681.36" /></g><g
         transform="scale(1.30767)"
         id="g38"><path
           id="path40"
           style="fill:#ffffff;fill-opacity:1;fill-rule:nonzero;stroke:none"
           d="M 16300,2294.24 H 9475.34 V 8063.63 H 16300 V 2294.24" /></g><g
         transform="scale(1.31623)"
         id="g42"><path
           id="path44"
           style="fill:#ffffff;fill-opacity:1;fill-rule:nonzero;stroke:none"
           d="M 16300,8011.16 H 9246.01 v 208.27 H 16300 v -208.27" /></g><g
         transform="scale(1.56497)"
         id="g46"><path
           id="path48"
           style="fill:#ffffff;fill-opacity:1;fill-rule:nonzero;stroke:none"
           d="m 16300,8070.02 h -5244.9 v 175.16 H 16300 v -175.16" /></g><g
         transform="scale(1.1144)"
         id="g50"><path
           id="path52"
           style="fill:#ff9e55;fill-opacity:1;fill-rule:nonzero;stroke:none"
           d="M 16300,7591.81 H 11118.6 V 8850.16 H 16300 V 7591.81" /></g><path
         id="path54"
         style="fill:#afcdfb;fill-opacity:1;fill-rule:nonzero;stroke:none"
         d="M 7004.04,6663.2 H 12390.6 V 9650.8 H 7004.04 Z" /><path
         id="path56"
         style="fill:#afcdfb;fill-opacity:1;fill-rule:nonzero;stroke:none"
         d="M 7004.04,3054 H 12390.6 V 6041.6 H 7004.04 Z" /><path
         id="path58"
         style="fill:#7fa8e5;fill-opacity:1;fill-rule:nonzero;stroke:none"
         d="M 12390.6,6041.6 H 7750.62 v 621.6 h 4639.98 v -621.6" /><path
         id="path60"
         style="fill:#ffffff;fill-opacity:1;fill-rule:nonzero;stroke:none"
         d="m 13176,9622.1 c -122.5,0 -237.8,-47.8 -324.4,-134.4 -86.7,-86.7 -134.4,-201.9 -134.4,-324.5 0,-122.6 47.7,-237.8 134.4,-324.5 86.6,-86.6 201.9,-134.4 324.4,-134.4 122.6,0 237.9,47.8 324.5,134.4 86.7,86.7 134.4,201.9 134.4,324.5 0,122.6 -47.7,237.8 -134.4,324.5 -86.6,86.6 -201.9,134.4 -324.5,134.4 z m 0,-964.3 c -134.9,0 -261.9,52.6 -357.3,148 -95.5,95.5 -148,222.4 -148,357.4 0,135 52.5,261.9 148,357.4 95.4,95.4 222.4,148 357.3,148 135,0 262,-52.6 357.4,-148 95.5,-95.5 148,-222.4 148,-357.4 0,-135 -52.5,-261.9 -148,-357.4 -95.4,-95.4 -222.4,-148 -357.4,-148" /><path
         id="path62"
         style="fill:#ffffff;fill-opacity:1;fill-rule:nonzero;stroke:none"
         d="m 13502.5,9245.6 h -244 v 244 h -164.9 v -244 h -244 v -164.8 h 244 v -244 h 164.9 v 244 h 244 v 164.8" /><path
         id="path64"
         style="fill:#ffffff;fill-opacity:1;fill-rule:nonzero;stroke:none"
         d="m 14082.3,9405.3 h 107.3 v -193 h 197.9 v 193 h 107.3 v -487.7 h -107.3 v 195.8 h -197.9 v -195.8 h -107.3 v 487.7" /><path
         id="path66"
         style="fill:#ffffff;fill-opacity:1;fill-rule:nonzero;stroke:none"
         d="m 14996.5,9161.5 c 0,83.6 -61.3,153.3 -147.7,153.3 -86.4,0 -146.4,-68.3 -146.4,-153.3 0,-83.6 61.4,-153.3 147.8,-153.3 86.4,0 146.3,68.3 146.3,153.3 z m -406.3,0 c 0,138.6 109.4,252.2 260,252.2 150.5,0 258.5,-112.2 258.5,-252.2 0,-138.7 -109.4,-252.3 -259.9,-252.3 -150.5,0 -258.6,112.2 -258.6,252.3" /><path
         id="path68"
         style="fill:#ffffff;fill-opacity:1;fill-rule:nonzero;stroke:none"
         d="m 15167.2,8988.7 63.4,75.9 c 43.9,-36.2 89.9,-59.2 145.6,-59.2 43.9,0 70.4,17.4 70.4,47.4 0,27.1 -16.7,41.1 -98.2,62 -98.3,25.1 -161.7,52.2 -161.7,150.5 0,88.5 71.1,147 170.7,147 71.1,0 131.7,-22.3 181.2,-62 l -55.7,-80.8 c -43.2,29.9 -85.7,48 -126.9,48 -41.1,0 -62.7,-18.8 -62.7,-43.9 0,-32 20.9,-42.5 105.2,-64.1 99,-25.7 154.7,-61.3 154.7,-147.7 0,-96.8 -73.8,-151.2 -179,-151.2 -73.9,0 -148.5,25.8 -207,78.1" /><path
         id="path70"
         style="fill:#ffffff;fill-opacity:1;fill-rule:nonzero;stroke:none"
         d="m 15838.9,9159.4 c 53.7,0 85,32 85,75.2 0,48.1 -33.4,73.9 -87.1,73.9 h -82.9 v -149.1 z m -192.3,245.9 h 199.3 c 116.4,0 186.7,-68.9 186.7,-170 0,-112.9 -87.8,-171.4 -197.2,-171.4 h -81.5 v -146.3 h -107.3 v 487.7" /><path
         id="path72"
         style="fill:#ffffff;fill-opacity:1;fill-rule:nonzero;stroke:none"
         d="m 16117,9405.3 h 107.3 V 8917.6 H 16117 v 487.7" /><g
         transform="scale(1.02549)"
         id="g74"><path
           id="path76"
           style="fill:#ffffff;fill-opacity:1;fill-rule:nonzero;stroke:none"
           d="m 16050.7,9075.07 h -144.8 v 96.44 h 394.1 v -96.44 h -144.7 v -379.13 h -104.6 v 379.13" /></g><g
         transform="scale(1.05585)"
         id="g78"><path
           id="path80"
           style="fill:#ffffff;fill-opacity:1;fill-rule:nonzero;stroke:none"
           d="m 16115.1,8639.23 -61.3,149.83 -61.4,-149.83 z m -106.8,271.91 h 93.7 l 198,-465.22 h -106.3 l -42.2,103.62 h -195.4 l -42.2,-103.62 h -103.7 l 198.1,465.22" /></g><g
         transform="scale(1.08196)"
         id="g82"><path
           id="path84"
           style="fill:#ffffff;fill-opacity:1;fill-rule:nonzero;stroke:none"
           d="m 15976.1,8692.81 h 99.1 v -360.64 h 224.8 v -90.11 h -323.9 v 450.75" /></g><g
         transform="scale(1.55597)"
         id="g86"><path
           id="path88"
           style="fill:#afcdfb;fill-opacity:1;fill-rule:nonzero;stroke:none"
           d="M 16300,4246.87 V 2720.49 H 13987.1 V 4246.87 H 16300" /></g><g
         transform="scale(1.55597)"
         id="g90"><path
           id="path92"
           style="fill:#afcdfb;fill-opacity:1;fill-rule:nonzero;stroke:none"
           d="m 16300,6494.43 v -1526.4 h -2312.9 v 1526.4 H 16300" /></g><g
         transform="scale(1.55597)"
         id="g94"><path
           id="path96"
           style="fill:#afcdfb;fill-opacity:1;fill-rule:nonzero;stroke:none"
           d="m 16300,7261.26 h -4523.9 v 601.36 H 16300 v -601.36" /></g><g
         transform="scale(1.30767)"
         id="g98"><path
           id="path100"
           style="fill:#dfebfd;fill-opacity:1;fill-rule:nonzero;stroke:none"
           d="M 9475.34,7991.64 16300,7785.83 v 277.8 H 9475.34 v -71.99" /></g><path
         id="path102"
         style="fill:#ffffff;fill-opacity:1;fill-rule:nonzero;stroke:none"
         d="M 12390.6,9372.8 H 6667.04 v 295.8 h 5723.56 v -295.8" /><path
         id="path104"
         style="fill:#acd29a;fill-opacity:1;fill-rule:nonzero;stroke:none"
         d="m 6658.69,4275 c -698.7,-158.7 -885,-725.9 -1327.44,-385.6 -442.44,340.4 -1001.35,113.4 -1303.99,98.6 -302.78,-14.7 -256.26,695.5 -908.32,922.4 -313.81,109.2 -838.73,128.5 -1214.01,112.1 -49.48,-406.9 2.7,-738 74.88,-983 72.18,-244.9 191.03,-475.8 361.98,-679 79.19,-94.1 188.84,-259.8 319.7,-306.6 H 7776.5 c 256.14,616.7 -419.24,1380 -1117.81,1221.1" /><path
         id="path106"
         style="fill:#f8fcff;fill-opacity:1;fill-rule:nonzero;stroke:none"
         d="m 4796.65,13909.2 c 0,0 473.22,555.5 1604.82,493.7 0,0 1642.88,925.9 3394.8,123.5 0,0 1862.33,198.8 3241.43,-172.2 919.5,-247.3 1223.3,-506.8 1223.3,-506.8 l -9464.35,61.8" /><path
         id="path108"
         style="fill:#f8fcff;fill-opacity:1;fill-rule:nonzero;stroke:none"
         d="m 14995.6,14590.5 c 0,201.4 163.3,364.6 364.6,364.6 201.4,0 364.6,-163.2 364.6,-364.6 0,-201.3 -163.2,-364.6 -364.6,-364.6 -201.3,0 -364.6,163.3 -364.6,364.6" /><path
         id="path110"
         style="fill:#f8fcff;fill-opacity:1;fill-rule:nonzero;stroke:none"
         d="m 10257.7,12280.6 c 0,0 259.2,304.2 879,270.4 0,0 899.9,507.2 1859.4,67.6 0,0 1020,108.9 1775.4,-94.2 503.7,-135.5 670,-277.6 670,-277.6 l -5183.8,33.8" /><g
         transform="scale(1.23009)"
         id="g112"><path
           id="path114"
           style="fill:#98baf4;fill-opacity:1;fill-rule:nonzero;stroke:none"
           d="m 16300,2502.18 h -5098 v 2663.15 h 5098 V 2502.18" /></g><g
         transform="scale(1.21894)"
         id="g116"><path
           id="path118"
           style="fill:#ffffff;fill-opacity:1;fill-rule:nonzero;stroke:none"
           d="M 16300,2516.03 H 11477.3 V 5024.59 H 16300 V 2516.03" /></g><g
         transform="scale(1.20602)"
         id="g120"><path
           id="path122"
           style="fill:#afcdfb;fill-opacity:1;fill-rule:nonzero;stroke:none"
           d="m 16300,4918.08 v -582.57 h -4515.1 v 582.57 H 16300" /></g><path
         id="path124"
         style="fill:#afcdfb;fill-opacity:1;fill-rule:nonzero;stroke:none"
         d="M 15805.1,5037.9 V 3080 h -1592.3 v 1957.9 h 1592.3" /><g
         transform="scale(1.09904)"
         id="g126"><path
           id="path128"
           style="fill:#afcdfb;fill-opacity:1;fill-rule:nonzero;stroke:none"
           d="M 16300,4583.93 V 2802.45 H 14518.7 V 4583.93 H 16300" /></g><g
         transform="scale(1.20602)"
         id="g130"><path
           id="path132"
           style="fill:#afcdfb;fill-opacity:1;fill-rule:nonzero;stroke:none"
           d="M 16300,4177.3 V 2553.86 H 14965.7 V 4177.3 H 16300" /></g><g
         transform="scale(1.09904)"
         id="g134"><path
           id="path136"
           style="fill:#cce1ff;fill-opacity:1;fill-rule:nonzero;stroke:none"
           d="M 15102.4,4583.93 H 16300 v -659.31 l -213.5,-1122.17 h -1323 l 338.9,1781.48" /></g><g
         transform="scale(1.08453)"
         id="g138"><path
           id="path140"
           style="fill:#ffffff;fill-opacity:1;fill-rule:nonzero;stroke:none"
           d="M 16300,2838.01 H 14949.6 V 4301.69 H 16300 V 2838.01" /></g><g
         transform="scale(1.08025)"
         id="g142"><path
           id="path144"
           style="fill:#98baf4;fill-opacity:1;fill-rule:nonzero;stroke:none"
           d="M 16300,2849.26 H 15073.5 V 4252.37 H 16300 V 2849.26" /></g><g
         transform="scale(1.04112)"
         id="g146"><path
           id="path148"
           style="fill:#ffffff;fill-opacity:1;fill-rule:nonzero;stroke:none"
           d="m 16300,2956.35 h -47.3 v 1455.84 h 47.3 V 2956.35" /></g><g
         transform="scale(1.03469)"
         id="g150"><path
           id="path152"
           style="fill:#ffffff;fill-opacity:1;fill-rule:nonzero;stroke:none"
           d="m 16239.5,3707.11 c 0,16.72 13.5,30.25 30.2,30.25 16.8,0 30.3,-13.53 30.3,-30.25 0,-16.72 -13.5,-30.25 -30.3,-30.25 -16.7,0 -30.2,13.53 -30.2,30.25" /></g><g
         transform="scale(1.04836)"
         id="g154"><path
           id="path156"
           style="fill:#ffffff;fill-opacity:1;fill-rule:nonzero;stroke:none"
           d="m 16240.3,3658.75 c 0,16.51 13.3,29.86 29.8,29.86 16.5,0 29.9,-13.35 29.9,-29.86 0,-16.5 -13.4,-29.85 -29.9,-29.85 -16.5,0 -29.8,13.35 -29.8,29.85" /></g><path
         id="path158"
         style="fill:#cce1ff;fill-opacity:1;fill-rule:nonzero;stroke:none"
         d="m 14719.3,5037.9 h 806.2 L 15268.2,3080 H 14462 l 257.3,1957.9" /><path
         id="path160"
         style="fill:#cce1ff;fill-opacity:1;fill-rule:nonzero;stroke:none"
         d="m 15642.9,5931.3 -92.3,-702.6 h -806.2 l 92.3,702.6 h 806.2" /><g
         transform="scale(1.18012)"
         id="g162"><path
           id="path164"
           style="fill:#cce1ff;fill-opacity:1;fill-rule:nonzero;stroke:none"
           d="M 15616.9,4268.96 H 16300 L 16082,2609.9 h -683.2 l 218.1,1659.06" /></g><g
         transform="scale(1.18733)"
         id="g166"><path
           id="path168"
           style="fill:#cce1ff;fill-opacity:1;fill-rule:nonzero;stroke:none"
           d="m 16300,4995.51 -77.8,-591.75 h -679 l 77.8,591.75 h 679" /></g><g
         transform="scale(1.11792)"
         id="g170"><path
           id="path172"
           style="fill:#cce1ff;fill-opacity:1;fill-rule:nonzero;stroke:none"
           d="m 16300,5305.66 -119.6,-628.49 h -1300.7 l 119.6,628.49 H 16300" /></g><g
         transform="scale(1.10756)"
         id="g174"><path
           id="path176"
           style="fill:#cce1ff;fill-opacity:1;fill-rule:nonzero;stroke:none"
           d="m 16297.3,4418.37 h 2.7 l -2.7,-14.09 v 14.09" /></g><path
         id="path178"
         style="fill:#acd29a;fill-opacity:1;fill-rule:nonzero;stroke:none"
         d="m 13337.9,3079.1 c 0,0 -38.8,342.6 308.5,429.4 347.3,86.8 483.6,396.9 886.8,136.4 403.2,-260.4 275.6,-565.8 275.6,-565.8 h -1470.9" /><g
         transform="scale(1.47034)"
         id="g180"><path
           id="path182"
           style="fill:#bdd7fd;fill-opacity:1;fill-rule:nonzero;stroke:none"
           d="m 15945.7,5257.37 h -809.9 l 354.3,1615.26 h 809.9 l -354.3,-1615.26" /></g><g
         transform="scale(1.53506)"
         id="g184"><path
           id="path186"
           style="fill:#cce1ff;fill-opacity:1;fill-rule:nonzero;stroke:none"
           d="m 15960.7,2757.54 h -775.8 l 339.4,1547.17 h 775.7 l -339.3,-1547.17" /></g><g
         transform="scale(1.39921)"
         id="g188"><path
           id="path190"
           style="fill:#cce1ff;fill-opacity:1;fill-rule:nonzero;stroke:none"
           d="m 16300,4722.67 -372.3,-1697.39 h -373.6 v 1697.39 h 745.9" /></g><g
         transform="scale(1.55597)"
         id="g192"><path
           id="path194"
           style="fill:#cce1ff;fill-opacity:1;fill-rule:nonzero;stroke:none"
           d="m 16300,6494.43 v -1526.4 h -841.3 l 373.7,1526.4 h 467.6" /></g><g
         transform="scale(1.23596)"
         id="g196"><path
           id="path198"
           style="fill:#edf4ff;fill-opacity:1;fill-rule:nonzero;stroke:none"
           d="m 16300,9141.29 h -80.3 v 757.06 h 80.3 v -757.06" /></g><g
         transform="scale(1.35885)"
         id="g200"><path
           id="path202"
           style="fill:#edf4ff;fill-opacity:1;fill-rule:nonzero;stroke:none"
           d="m 16300,8314.59 h -73 v 688.59 h 73 v -688.59" /></g><g
         transform="scale(1.47871)"
         id="g204"><path
           id="path206"
           style="fill:#edf4ff;fill-opacity:1;fill-rule:nonzero;stroke:none"
           d="m 16300,7640.67 h -67.1 v 632.78 h 67.1 v -632.78" /></g><path
         id="path208"
         style="fill:#a3c3f7;fill-opacity:1;fill-rule:nonzero;stroke:none"
         d="m 8195.81,7666.9 h -245.26 v 237.6 h 245.26 v -237.6 m -290.77,0 h -245.26 v 237.6 h 245.26 v -237.6 m 290.77,283.1 h -245.26 v 268 h 245.26 v -268 m -290.77,0 h -245.26 v 268 h 245.26 v -268 m 290.77,313.5 h -245.26 v 284.6 h 245.26 v -284.6 m -290.77,0 h -245.26 v 284.6 h 245.26 v -284.6" /><path
         id="path210"
         style="fill:#d7e6fd;fill-opacity:1;fill-rule:nonzero;stroke:none"
         d="m 8256.5,7606.3 h -657.4 v 1002.5 h 657.4 V 7606.3 m -351.46,60.6 v -30.3 h 45.51 v 30.3 h 245.26 v 237.6 h 7.59 v 45.5 h -7.59 v 268 h 7.59 v 45.5 h -7.59 v 284.6 h -245.26 v 34.8 h -45.51 v -34.8 h -245.26 v -284.6 h -7.58 V 8218 h 7.58 v -268 h -7.58 v -45.5 h 7.58 v -237.6 h 245.26" /><path
         id="path212"
         style="fill:#d7e6fd;fill-opacity:1;fill-rule:nonzero;stroke:none"
         d="m 8203.4,8218 h -252.85 v 45.5 H 8203.4 V 8218 m -298.36,0 h -245.26 -7.58 v 45.5 h 7.58 245.26 V 8218" /><path
         id="path214"
         style="fill:#d7e6fd;fill-opacity:1;fill-rule:nonzero;stroke:none"
         d="m 8203.4,7904.5 h -252.85 v 45.5 h 252.85 v -45.5 m -298.36,0 h -245.26 -7.58 v 45.5 h 7.58 245.26 v -45.5" /><path
         id="path216"
         style="fill:#d7e6fd;fill-opacity:1;fill-rule:nonzero;stroke:none"
         d="m 7950.55,7636.6 h -45.51 v 946.3 h 45.51 v -34.8 -284.6 -45.5 -268 -45.5 -237.6 -30.3" /><path
         id="path218"
         style="fill:#a3c3f7;fill-opacity:1;fill-rule:nonzero;stroke:none"
         d="m 9918.79,7666.9 h -245.25 v 237.6 h 245.25 v -237.6 m -290.77,0 h -245.25 v 237.6 h 245.25 v -237.6 m 290.77,283.1 h -245.25 v 268 h 245.25 v -268 m -290.77,0 h -245.25 v 268 h 245.25 v -268 m 290.77,313.5 h -245.25 v 284.6 h 245.25 v -284.6 m -290.77,0 h -245.25 v 284.6 h 245.25 v -284.6" /><path
         id="path220"
         style="fill:#d7e6fd;fill-opacity:1;fill-rule:nonzero;stroke:none"
         d="m 9979.48,7606.3 h -657.4 v 1002.5 h 657.4 V 7606.3 m -351.46,60.6 v -30.3 h 45.52 v 30.3 h 245.25 v 237.6 h 7.59 v 45.5 h -7.59 v 268 h 7.59 v 45.5 h -7.59 v 284.6 h -245.25 v 34.8 h -45.52 v -34.8 h -245.25 v -284.6 h -7.59 V 8218 h 7.59 v -268 h -7.59 v -45.5 h 7.59 v -237.6 h 245.25" /><path
         id="path222"
         style="fill:#d7e6fd;fill-opacity:1;fill-rule:nonzero;stroke:none"
         d="m 9926.38,8218 h -252.84 v 45.5 h 252.84 V 8218 m -298.36,0 h -245.25 -7.59 v 45.5 h 7.59 245.25 V 8218" /><path
         id="path224"
         style="fill:#d7e6fd;fill-opacity:1;fill-rule:nonzero;stroke:none"
         d="m 9926.38,7904.5 h -252.84 v 45.5 h 252.84 v -45.5 m -298.36,0 h -245.25 -7.59 v 45.5 h 7.59 245.25 v -45.5" /><path
         id="path226"
         style="fill:#d7e6fd;fill-opacity:1;fill-rule:nonzero;stroke:none"
         d="m 9673.54,7636.6 h -45.52 v 946.3 h 45.52 v -34.8 -284.6 -45.5 -268 -45.5 -237.6 -30.3" /><path
         id="path228"
         style="fill:#a3c3f7;fill-opacity:1;fill-rule:nonzero;stroke:none"
         d="m 11641.8,7666.9 h -245.3 v 237.6 h 245.3 v -237.6 m -290.8,0 h -245.3 v 237.6 h 245.3 v -237.6 m 290.8,283.1 h -245.3 v 268 h 245.3 v -268 m -290.8,0 h -245.3 v 268 h 245.3 v -268 m 290.8,313.5 h -245.3 v 284.6 h 245.3 v -284.6 m -290.8,0 h -245.3 v 284.6 h 245.3 v -284.6" /><path
         id="path230"
         style="fill:#d7e6fd;fill-opacity:1;fill-rule:nonzero;stroke:none"
         d="m 11702.5,7606.3 h -657.4 v 1002.5 h 657.4 V 7606.3 m -351.5,60.6 v -30.3 h 45.5 v 30.3 h 245.3 v 237.6 h 7.6 v 45.5 h -7.6 v 268 h 7.6 v 45.5 h -7.6 v 284.6 h -245.3 v 34.8 h -45.5 v -34.8 h -245.3 v -284.6 h -7.5 V 8218 h 7.5 v -268 h -7.5 v -45.5 h 7.5 v -237.6 h 245.3" /><path
         id="path232"
         style="fill:#d7e6fd;fill-opacity:1;fill-rule:nonzero;stroke:none"
         d="m 11649.4,8218 h -252.9 v 45.5 h 252.9 V 8218 m -298.4,0 h -245.3 -7.5 v 45.5 h 7.5 245.3 V 8218" /><path
         id="path234"
         style="fill:#d7e6fd;fill-opacity:1;fill-rule:nonzero;stroke:none"
         d="m 11649.4,7904.5 h -252.9 v 45.5 h 252.9 v -45.5 m -298.4,0 h -245.3 -7.5 v 45.5 h 7.5 245.3 v -45.5" /><path
         id="path236"
         style="fill:#d7e6fd;fill-opacity:1;fill-rule:nonzero;stroke:none"
         d="m 11396.5,7636.6 h -45.5 v 946.3 h 45.5 v -34.8 -284.6 -45.5 -268 -45.5 -237.6 -30.3" /><path
         id="path238"
         style="fill:#a3c3f7;fill-opacity:1;fill-rule:nonzero;stroke:none"
         d="M 8195.81,4437.4 H 7950.55 V 4675 h 245.26 v -237.6 m -290.77,0 H 7659.78 V 4675 h 245.26 v -237.6 m 290.77,283.1 h -245.26 v 267.9 h 245.26 v -267.9 m -290.77,0 h -245.26 v 267.9 h 245.26 v -267.9 m 290.77,313.4 h -245.26 v 284.7 h 245.26 v -284.7 m -290.77,0 h -245.26 v 284.7 h 245.26 v -284.7" /><path
         id="path240"
         style="fill:#d7e6fd;fill-opacity:1;fill-rule:nonzero;stroke:none"
         d="m 8256.5,4376.7 h -657.4 v 1002.6 h 657.4 V 4376.7 m -351.46,60.7 V 4407 h 45.51 v 30.4 h 245.26 V 4675 h 7.59 v 45.5 h -7.59 v 267.9 h 7.59 v 45.5 h -7.59 v 284.7 h -245.26 v 34.7 h -45.51 v -34.7 h -245.26 v -284.7 h -7.58 v -45.5 h 7.58 v -267.9 h -7.58 V 4675 h 7.58 v -237.6 h 245.26" /><path
         id="path242"
         style="fill:#d7e6fd;fill-opacity:1;fill-rule:nonzero;stroke:none"
         d="m 8203.4,4988.4 h -252.85 v 45.5 h 252.85 v -45.5 m -298.36,0 h -245.26 -7.58 v 45.5 h 7.58 245.26 v -45.5" /><path
         id="path244"
         style="fill:#d7e6fd;fill-opacity:1;fill-rule:nonzero;stroke:none"
         d="m 8203.4,4675 h -252.85 v 45.5 H 8203.4 V 4675 m -298.36,0 h -245.26 -7.58 v 45.5 h 7.58 245.26 V 4675" /><path
         id="path246"
         style="fill:#d7e6fd;fill-opacity:1;fill-rule:nonzero;stroke:none"
         d="m 7950.55,4407 h -45.51 v 946.3 h 45.51 v -34.7 -284.7 -45.5 -267.9 -45.5 -237.6 -30.4" /><path
         id="path248"
         style="fill:#a3c3f7;fill-opacity:1;fill-rule:nonzero;stroke:none"
         d="M 9918.79,4437.4 H 9673.54 V 4675 h 245.25 v -237.6 m -290.77,0 H 9382.77 V 4675 h 245.25 v -237.6 m 290.77,283.1 h -245.25 v 267.9 h 245.25 v -267.9 m -290.77,0 h -245.25 v 267.9 h 245.25 v -267.9 m 290.77,313.4 h -245.25 v 284.7 h 245.25 v -284.7 m -290.77,0 h -245.25 v 284.7 h 245.25 v -284.7" /><path
         id="path250"
         style="fill:#d7e6fd;fill-opacity:1;fill-rule:nonzero;stroke:none"
         d="m 9979.48,4376.7 h -657.4 v 1002.6 h 657.4 V 4376.7 m -351.46,60.7 V 4407 h 45.52 v 30.4 h 245.25 V 4675 h 7.59 v 45.5 h -7.59 v 267.9 h 7.59 v 45.5 h -7.59 v 284.7 h -245.25 v 34.7 h -45.52 v -34.7 h -245.25 v -284.7 h -7.59 v -45.5 h 7.59 v -267.9 h -7.59 V 4675 h 7.59 v -237.6 h 245.25" /><path
         id="path252"
         style="fill:#d7e6fd;fill-opacity:1;fill-rule:nonzero;stroke:none"
         d="m 9926.38,4988.4 h -252.84 v 45.5 h 252.84 v -45.5 m -298.36,0 h -245.25 -7.59 v 45.5 h 7.59 245.25 v -45.5" /><path
         id="path254"
         style="fill:#d7e6fd;fill-opacity:1;fill-rule:nonzero;stroke:none"
         d="m 9926.38,4675 h -252.84 v 45.5 h 252.84 V 4675 m -298.36,0 h -245.25 -7.59 v 45.5 h 7.59 245.25 V 4675" /><path
         id="path256"
         style="fill:#d7e6fd;fill-opacity:1;fill-rule:nonzero;stroke:none"
         d="m 9673.54,4407 h -45.52 v 946.3 h 45.52 v -34.7 -284.7 -45.5 -267.9 -45.5 -237.6 -30.4" /><path
         id="path258"
         style="fill:#a3c3f7;fill-opacity:1;fill-rule:nonzero;stroke:none"
         d="m 11641.8,4437.4 h -245.3 V 4675 h 245.3 v -237.6 m -290.8,0 h -245.3 V 4675 h 245.3 v -237.6 m 290.8,283.1 h -245.3 v 267.9 h 245.3 v -267.9 m -290.8,0 h -245.3 v 267.9 h 245.3 v -267.9 m 290.8,313.4 h -245.3 v 284.7 h 245.3 v -284.7 m -290.8,0 h -245.3 v 284.7 h 245.3 v -284.7" /><path
         id="path260"
         style="fill:#d7e6fd;fill-opacity:1;fill-rule:nonzero;stroke:none"
         d="m 11702.5,4376.7 h -657.4 v 1002.6 h 657.4 V 4376.7 m -351.5,60.7 V 4407 h 45.5 v 30.4 h 245.3 V 4675 h 7.6 v 45.5 h -7.6 v 267.9 h 7.6 v 45.5 h -7.6 v 284.7 h -245.3 v 34.7 h -45.5 v -34.7 h -245.3 v -284.7 h -7.5 v -45.5 h 7.5 v -267.9 h -7.5 V 4675 h 7.5 v -237.6 h 245.3" /><path
         id="path262"
         style="fill:#d7e6fd;fill-opacity:1;fill-rule:nonzero;stroke:none"
         d="m 11649.4,4988.4 h -252.9 v 45.5 h 252.9 v -45.5 m -298.4,0 h -245.3 -7.5 v 45.5 h 7.5 245.3 v -45.5" /><path
         id="path264"
         style="fill:#d7e6fd;fill-opacity:1;fill-rule:nonzero;stroke:none"
         d="m 11649.4,4675 h -252.9 v 45.5 h 252.9 V 4675 m -298.4,0 h -245.3 -7.5 v 45.5 h 7.5 245.3 V 4675" /><path
         id="path266"
         style="fill:#d7e6fd;fill-opacity:1;fill-rule:nonzero;stroke:none"
         d="m 11396.5,4407 h -45.5 v 946.3 h 45.5 v -34.7 -284.7 -45.5 -267.9 -45.5 -237.6 -30.4" /><g
         transform="scale(1.3238)"
         id="g268"><path
           id="path270"
           style="fill:#dfebfd;fill-opacity:1;fill-rule:nonzero;stroke:none"
           d="M 16300,5300.26 H 9255.07 v 247.92 H 16300 v -247.92" /></g><path
         id="path272"
         style="fill:#acd29a;fill-opacity:1;fill-rule:nonzero;stroke:none"
         d="m 9183.73,9668.6 c 0,0 161.25,524.7 558.16,512.7 396.91,-12 520.91,-377.3 657.41,-318.7 136.4,58.6 533.3,24.8 558.2,-194 H 9183.73" /><g
         transform="scale(1.72314)"
         id="g274"><path
           id="path276"
           style="fill:#233862;fill-opacity:1;fill-rule:nonzero;stroke:none"
           d="m 16300,2835.69 v -129.06 c 0,-11.44 -2.7,-22.52 -7.6,-32.27 -11.8,-23.68 -36.6,-39.99 -64.7,-39.99 h -23.2 c -39.6,0 -72.2,32.45 -72.2,72.26 v 129.06 c 0,13.58 3.9,26.23 10.5,37.09 v 0.17 c 12.8,21.01 35.7,35 61.7,35 h 23.2 c 39.8,0 72.3,-32.62 72.3,-72.26" /></g><g
         transform="scale(1.72234)"
         id="g278"><path
           id="path280"
           style="fill:#233862;fill-opacity:1;fill-rule:nonzero;stroke:none"
           d="m 16235.3,2635.6 h -23.2 c -39.7,0 -72.3,32.46 -72.3,72.29 v 129.13 c 0,13.58 3.9,26.24 10.5,37.1 1.4,-7.96 32.1,-185.1 149.7,-198.51 -11.8,-23.69 -36.6,-40.01 -64.7,-40.01" /></g><g
         transform="scale(1.63976)"
         id="g282"><path
           id="path284"
           style="fill:#172944;fill-opacity:1;fill-rule:nonzero;stroke:none"
           d="m 15924.5,1987.43 h 375.5 v 378.95 h -391.8 l 16.3,-378.95" /></g><g
         transform="scale(1.7211)"
         id="g286"><path
           id="path288"
           style="fill:#ffffff;fill-opacity:1;fill-rule:nonzero;stroke:none"
           d="m 16300,2656.73 -1757.7,-43.34 v 926.85 h 1154.2 c 110.1,0 210.8,-61.59 261,-159.49 l 75.6,-147.41 266.9,-576.61" /></g><g
         transform="scale(1.64442)"
         id="g290"><path
           id="path292"
           style="fill:#233862;fill-opacity:1;fill-rule:nonzero;stroke:none"
           d="m 16015,2043.27 c 0,-102.59 52.9,-215.76 52.9,-215.76 0,0 78.7,0 89.6,0 78.7,0 142.5,96.63 142.5,215.76 0,119.13 -153.4,215.76 -232.1,215.76 -78.7,0 -52.9,-96.63 -52.9,-215.76" /></g><g
         transform="scale(1.63539)"
         id="g294"><path
           id="path296"
           style="fill:#2b478b;fill-opacity:1;fill-rule:nonzero;stroke:none"
           d="m 16013.4,2054.56 c 0,-119.79 64.1,-216.95 143.3,-216.95 79.1,0 143.3,97.16 143.3,216.95 0,119.79 -64.2,216.95 -143.3,216.95 -79.2,0 -143.3,-97.16 -143.3,-216.95" /></g><g
         transform="scale(1.63202)"
         id="g298"><path
           id="path300"
           style="fill:#afcdfb;fill-opacity:1;fill-rule:nonzero;stroke:none"
           d="m 16083.7,2058.8 c 0,-90.44 48.4,-163.72 108.2,-163.72 59.7,0 108.1,73.28 108.1,163.72 0,90.44 -48.4,163.72 -108.1,163.72 -59.8,0 -108.2,-73.28 -108.2,-163.72" /></g><g
         transform="scale(1.74834)"
         id="g302"><path
           id="path304"
           style="fill:#233862;fill-opacity:1;fill-rule:nonzero;stroke:none"
           d="m 16031.9,1921.83 c 0,-96.5 49.8,-202.94 49.8,-202.94 0,0 74,0 84.2,0 74,0 134.1,90.89 134.1,202.94 0,112.05 -144.3,202.93 -218.3,202.93 -74,0 -49.8,-90.88 -49.8,-202.93" /></g><g
         transform="scale(1.73929)"
         id="g306"><path
           id="path308"
           style="fill:#2b478b;fill-opacity:1;fill-rule:nonzero;stroke:none"
           d="m 16030.6,1931.82 c 0,-112.63 60.3,-203.99 134.7,-203.99 74.4,0 134.7,91.36 134.7,203.99 0,112.63 -60.3,203.99 -134.7,203.99 -74.4,0 -134.7,-91.36 -134.7,-203.99" /></g><g
         transform="scale(1.50971)"
         id="g310"><path
           id="path312"
           style="fill:#233862;fill-opacity:1;fill-rule:nonzero;stroke:none"
           d="m 15989.6,2225.6 c 0,-111.74 57.6,-235.01 57.6,-235.01 0,0 85.7,0 97.6,0 85.7,0 155.2,105.25 155.2,235.01 0,129.76 -167.1,235.01 -252.8,235.01 -85.7,0 -57.6,-105.25 -57.6,-235.01" /></g><g
         transform="scale(1.50067)"
         id="g314"><path
           id="path316"
           style="fill:#2b478b;fill-opacity:1;fill-rule:nonzero;stroke:none"
           d="m 15987.7,2239 c 0,-130.54 69.9,-236.43 156.2,-236.43 86.2,0 156.1,105.89 156.1,236.43 0,130.54 -69.9,236.43 -156.1,236.43 -86.3,0 -156.2,-105.89 -156.2,-236.43" /></g><g
         transform="scale(1.76267)"
         id="g318"><path
           id="path320"
           style="fill:#ffffff;fill-opacity:1;fill-rule:nonzero;stroke:none"
           d="m 16299.8,2001.17 c 0.2,-84.13 -68,-152.32 -152,-152.32 h -984.4 c 2.9,16.5 4.4,33.64 4.4,51.28 0,130.14 -78.1,235.72 -174.2,235.72 -96.3,0 -174.4,-105.58 -174.4,-235.72 0,-17.64 1.3,-34.78 4.2,-51.28 h -575.2 c 0,0 -23.2,256.82 -20.3,385.6 2.2,112.11 2.2,331.72 -4.4,385.27 0,8 554.7,8.91 694.7,9.47 19,0.23 30.4,0.23 31.5,0.23 l 1.9,-1.36 2.1,-1.47 c 25.9,-18.1 170.6,-119.54 260.4,-178.99 79.2,-52.26 664,-73.53 893.3,-79.94 57,-1.53 92.1,-2.1 92.1,-2.1 0,0 31.3,-32.11 59.1,-82.83 21.3,-39.31 40.3,-89.86 40.7,-145.12 0.1,-34.44 0.3,-75.85 0.3,-116.47 0.2,-6.64 0.2,-13.27 0.2,-19.97" /></g><g
         transform="scale(1.71203)"
         id="g322"><path
           id="path324"
           style="fill:#98baf4;fill-opacity:1;fill-rule:nonzero;stroke:none"
           d="m 16243.9,2707.19 h -794.1 c -18.4,0 -35,10.75 -42.7,27.4 l -196.5,437.32 c -6.5,14.25 4.1,30.49 19.7,30.49 h 837.8 c 18.3,0 35.2,-10.93 42.6,-27.98 l 140.8,-321.72 35.2,-80.38 c 13.3,-30.72 -9.2,-65.13 -42.8,-65.13" /></g><g
         transform="scale(1.66747)"
         id="g326"><path
           id="path328"
           style="fill:#dfebfd;fill-opacity:1;fill-rule:nonzero;stroke:none"
           d="m 16298.1,2136.53 c -0.1,-14.1 -0.7,-27.35 -1.5,-39.16 -5.8,-78.15 -84.3,-142.97 -84.3,-142.97 h -183.2 c 3,17.51 4.6,35.56 4.6,54.21 0,46.78 -9.6,90.56 -26.1,127.92 -32.3,72.68 -90.9,121.32 -158,121.32 -67.3,0 -125.9,-48.64 -158.3,-121.32 -16.4,-37.36 -26.1,-81.14 -26.1,-127.92 0,-18.65 1.5,-36.7 4.5,-54.21 H 15010 v 1699.63 h 529.6 l 2.5,-316.7 c 0,0 8.9,-47.5 27,-89.9 16.2,-37.9 37.7,-88.34 61.1,-143.27 48.2,-112.57 104.5,-243.96 139.7,-324.86 17.6,-40.96 30.1,-68.85 33.3,-74.91 9.9,-18.83 156.8,-98.47 281.1,-169.12 30.9,-17.63 60.6,-34.72 86.2,-50.07 36.6,-22.07 65.2,-40.66 78.7,-52.9 33.9,-30.52 50.8,-189.2 48.9,-295.77" /></g><g
         transform="scale(1.7518)"
         id="g330"><path
           id="path332"
           style="fill:#ffffff;fill-opacity:1;fill-rule:nonzero;stroke:none"
           d="m 16300,2380.23 h -919.8 l -335.8,264.13 -2,1.37 h 927.9 l 264.1,-212.58 65.6,-52.92" /></g><g
         transform="scale(1.66575)"
         id="g334"><path
           id="path336"
           style="fill:#a8302d;fill-opacity:1;fill-rule:nonzero;stroke:none"
           d="m 16300,2339.97 -87.5,8.64 c -30.5,3.01 -55.3,25.94 -60.7,56.08 l -20.1,110.58 c -0.3,1.8 -0.6,3.42 -0.3,5.22 62.3,-35.78 114.8,-67.78 134.6,-85.67 14.5,-13.02 26,-49.23 34,-94.85" /></g><g
         transform="scale(1.69292)"
         id="g338"><path
           id="path340"
           style="fill:#ffffff;fill-opacity:1;fill-rule:nonzero;stroke:none"
           d="m 16300,3287.16 h -991.5 c 0,0 -3.9,63.44 -28.7,135.92 -22.2,63.97 -60.5,135.39 -127.5,176.09 h 810.2 c 132.1,0 249.1,-70.53 295.7,-176.09 2.2,-4.37 4.1,-8.74 5.7,-13.11 13.9,-36.69 26.5,-77.68 36.1,-122.81" /></g><g
         transform="scale(1.66577)"
         id="g342"><path
           id="path344"
           style="fill:#a2c2dd;fill-opacity:1;fill-rule:nonzero;stroke:none"
           d="m 16300,2339.94 -87.6,8.65 c -30.6,3 -55.3,25.93 -60.7,56.07 l -20.2,110.58 c -0.3,1.8 -0.5,3.6 -0.3,5.4 62.3,-35.96 114.8,-67.95 134.6,-85.84 14.5,-13.03 26,-49.23 34.2,-94.86" /></g><g
         transform="scale(1.76267)"
         id="g346"><path
           id="path348"
           style="fill:#233862;fill-opacity:1;fill-rule:nonzero;stroke:none"
           d="m 16299.8,2001.17 c 0.2,-84.13 -71.2,-152.32 -159.4,-152.32 h -977 c 2.9,16.5 4.4,33.64 4.4,51.28 0,44.25 -9.1,85.67 -24.7,121.01 h 1156.5 c 0.2,-6.64 0.2,-13.27 0.2,-19.97" /></g><g
         transform="scale(1.60521)"
         id="g350"><path
           id="path352"
           style="fill:#233862;fill-opacity:1;fill-rule:nonzero;stroke:none"
           d="m 16272.9,2086.52 c 0,-19.38 1.4,-38.19 4.5,-56.32 h -685.2 v 189.2 h 707.8 c -17.1,-38.81 -27.1,-84.29 -27.1,-132.88" /></g><g
         transform="scale(1.73575)"
         id="g354"><path
           id="path356"
           style="fill:#233862;fill-opacity:1;fill-rule:nonzero;stroke:none"
           d="m 15899,2394.69 h 379.6 c 12.1,0 21.4,-16.36 19.6,-34.51 l -13.5,-131.93 c -2,-19.35 -13,-33.7 -26.1,-33.7 h -312.7 c -20,0 -37.7,19.88 -43.5,48.85 l -22.6,112.17 c -3.9,19.48 5.7,39.12 19.2,39.12" /></g><g
         transform="scale(1.70694)"
         id="g358"><path
           id="path360"
           style="fill:#afcdfb;fill-opacity:1;fill-rule:nonzero;stroke:none"
           d="m 16300,2861.21 c -455.3,23.37 -763.3,266.96 -856.3,350.74 h 672.3 c 18.4,0 35.3,-10.96 42.8,-28.06 l 141.2,-322.68" /></g><g
         transform="scale(1.55458)"
         id="g362"><path
           id="path364"
           style="fill:#ffffff;fill-opacity:1;fill-rule:nonzero;stroke:none"
           d="M 16300,3919.52 V 2096.13 h -1891 v 1823.39 h 1891" /></g><g
         transform="scale(1.69292)"
         id="g366"><path
           id="path368"
           style="fill:#dfebfd;fill-opacity:1;fill-rule:nonzero;stroke:none"
           d="m 16300,3287.16 h -991.5 c 0,0 -3.9,63.44 -28.7,135.92 h 978.4 c 2.2,-4.37 4.1,-8.74 5.7,-13.11 13.9,-36.69 26.5,-77.68 36.1,-122.81" /></g><g
         transform="scale(1.75819)"
         id="g370"><path
           id="path372"
           style="fill:#233862;fill-opacity:1;fill-rule:nonzero;stroke:none"
           d="m 16300,2288.55 c -5.3,-8.76 -12.2,-14.51 -19.6,-15.82 l -128.6,-23.83 c -10.8,-2.04 -19.2,16.78 -16.3,36.23 l 12.5,86.46 0.4,2.1 2.5,17.69 c 2.3,15.24 9,26.84 17.1,30.09 l 7.4,2.84 65.4,-52.72 c 0,0 31.4,-32.19 59.2,-83.04" /></g><g
         transform="scale(1.66228)"
         id="g374"><path
           id="path376"
           style="fill:#ea6a60;fill-opacity:1;fill-rule:nonzero;stroke:none"
           d="m 16300,2399.48 h -2824.6 v 143.78 H 16300 v -143.78" /></g><g
         transform="scale(1.55458)"
         id="g378"><path
           id="path380"
           style="fill:#ea6a60;fill-opacity:1;fill-rule:nonzero;stroke:none"
           d="m 16300,3603.55 v -153.61 h -1891 v 153.61 h 1891" /></g><g
         transform="scale(1.49007)"
         id="g382"><path
           id="path384"
           style="fill:#ea6a60;fill-opacity:1;fill-rule:nonzero;stroke:none"
           d="m 15738.3,3221.79 c 0,155.09 125.8,280.79 280.9,280.79 155.1,0 280.8,-125.7 280.8,-280.79 0,-155.1 -125.7,-280.86 -280.8,-280.86 -155.1,0 -280.9,125.76 -280.9,280.86" /></g><g
         transform="scale(1.48713)"
         id="g386"><path
           id="path388"
           style="fill:#ffffff;fill-opacity:1;fill-rule:nonzero;stroke:none"
           d="m 16050.9,3454.38 c -60.4,0 -117.2,-23.54 -159.9,-66.31 -42.7,-42.7 -66.3,-99.52 -66.3,-159.9 0,-60.45 23.6,-117.21 66.3,-159.98 42.7,-42.69 99.5,-66.23 159.9,-66.23 60.4,0 117.2,23.54 159.9,66.23 42.8,42.77 66.3,99.53 66.3,159.98 0,60.38 -23.5,117.2 -66.3,159.9 -42.7,42.77 -99.5,66.31 -159.9,66.31 z m 0,-475.35 c -66.5,0 -129.1,25.89 -176.1,72.96 -47.1,47.07 -73,109.61 -73,176.18 0,66.5 25.9,129.1 73,176.17 47,47.01 109.6,72.96 176.1,72.96 66.5,0 129.1,-25.95 176.1,-72.96 47.1,-47.07 73,-109.67 73,-176.17 0,-66.57 -25.9,-129.11 -73,-176.18 -47,-47.07 -109.6,-72.96 -176.1,-72.96" /></g><g
         transform="scale(1.47908)"
         id="g390"><path
           id="path392"
           style="fill:#ffffff;fill-opacity:1;fill-rule:nonzero;stroke:none"
           d="m 16300,3286.57 h -120.9 v 120.95 h -81.7 v -120.95 h -120.9 v -81.67 h 120.9 v -120.95 h 81.7 v 120.95 h 120.9 v 81.67" /></g><g
         transform="scale(1.68658)"
         id="g394"><path
           id="path396"
           style="fill:#233862;fill-opacity:1;fill-rule:nonzero;stroke:none"
           d="m 16262.7,2294.77 -163.8,16.3 h -0.2 l -86.4,8.54 c -30.2,2.96 -54.6,25.62 -59.9,55.38 l -19.9,109.21 c -0.3,1.78 -0.6,3.38 -0.3,5.16 v 0.18 c -1.1,23.01 20,41.68 43.6,36.94 l 255.1,-51.82 c 16.3,-3.38 29.2,-15.48 33.6,-31.37 l 30,-110.81 c 5.5,-20.22 -11,-39.91 -31.8,-37.71" /></g><g
         transform="scale(1.60805)"
         id="g398"><path
           id="path400"
           style="fill:#98baf4;fill-opacity:1;fill-rule:nonzero;stroke:none"
           d="m 16119.9,3325.71 180.1,-443.52 h -309 c 0,0 -63.4,10.57 -71.5,140.11 -8.7,138.3 -8.7,376.97 -8.7,376.97 l 135.7,0.63 c 51.6,-7.78 59.7,-36.2 73.4,-74.19" /></g><g
         transform="scale(1.60813)"
         id="g402"><path
           id="path404"
           style="fill:#233862;fill-opacity:1;fill-rule:nonzero;stroke:none"
           d="m 16207.5,3109.76 c 0,0 15.7,-179.27 -72.8,-228.34 h 165.3 l -92.5,228.34" /></g><g
         transform="scale(1.60223)"
         id="g406"><path
           id="path408"
           style="fill:#233862;fill-opacity:1;fill-rule:nonzero;stroke:none"
           d="m 16291.6,3000.82 c 0,0 -37.4,26.65 -40.7,48.75 v -125.83 h 49.1 l -8.4,77.08" /></g><g
         transform="scale(1.5974)"
         id="g410"><path
           id="path412"
           style="fill:#233862;fill-opacity:1;fill-rule:nonzero;stroke:none"
           d="m 16300,3058.84 v -139.17 c 0,-12.33 -2.9,-24.29 -8.2,-34.8 -12.8,-25.54 -39.4,-43.14 -69.8,-43.14 h -25 c -42.7,0 -77.9,35 -77.9,77.94 v 139.17 c 0,14.71 4.2,28.35 11.3,40.06 v 0.19 c 13.8,22.66 38.6,37.75 66.6,37.75 h 25 c 42.9,0 78,-35.18 78,-78" /></g><g
         transform="scale(1.55967)"
         id="g414"><path
           id="path416"
           style="fill:#233862;fill-opacity:1;fill-rule:nonzero;stroke:none"
           d="m 16248.6,2147.44 c 0,-19.94 2.8,-39.3 8.8,-57.96 H 14959.6 V 2284.2 H 16300 c -32.4,-39.94 -51.4,-86.75 -51.4,-136.76" /></g><g
         transform="scale(1.50248)"
         id="g418"><path
           id="path420"
           style="fill:#233862;fill-opacity:1;fill-rule:nonzero;stroke:none"
           d="m 16246.7,2229.17 c 0,-20.7 2.8,-40.79 9,-60.16 h -1347.1 v 202.13 H 16300 c -33.6,-41.47 -53.3,-90.05 -53.3,-141.97" /></g><g
         transform="scale(1.43413)"
         id="g422"><path
           id="path424"
           style="fill:#172944;fill-opacity:1;fill-rule:nonzero;stroke:none"
           d="m 16288.7,2272.25 h -504.2 c -10.7,45.53 -42.7,369.56 239.8,369.56 256.8,0.07 275.7,-295.65 264.4,-369.56" /></g><g
         transform="scale(1.43141)"
         id="g426"><path
           id="path428"
           style="fill:#233862;fill-opacity:1;fill-rule:nonzero;stroke:none"
           d="m 15972.6,2347.33 c 0,-117.85 60.7,-247.86 60.7,-247.86 0,0 90.4,0 103,0 90.4,0 163.7,111.01 163.7,247.86 0,136.86 -176.2,247.87 -266.7,247.87 -90.4,0 -60.7,-111.01 -60.7,-247.87" /></g><g
         transform="scale(1.42237)"
         id="g430"><path
           id="path432"
           style="fill:#2b478b;fill-opacity:1;fill-rule:nonzero;stroke:none"
           d="m 15970.5,2362.25 c 0,-137.73 73.7,-249.44 164.7,-249.44 91.1,0 164.8,111.71 164.8,249.44 0,137.73 -73.7,249.44 -164.8,249.44 -91,0 -164.7,-111.71 -164.7,-249.44" /></g><g
         transform="scale(1.41901)"
         id="g434"><path
           id="path436"
           style="fill:#afcdfb;fill-opacity:1;fill-rule:nonzero;stroke:none"
           d="m 16051.2,2367.85 c 0,-104.01 55.7,-188.3 124.4,-188.3 68.7,0 124.4,84.29 124.4,188.3 0,104.02 -55.7,188.3 -124.4,188.3 -68.7,0 -124.4,-84.28 -124.4,-188.3" /></g><g
         transform="scale(1.17131)"
         id="g438"><path
           id="path440"
           style="fill:#163560;fill-opacity:1;fill-rule:nonzero;stroke:none"
           d="m 15469.6,5355.73 c -12.8,24.67 279.1,113.46 283.7,-129.94 0,0 546.7,13.4 285.6,318.1 -90.3,105.53 -81,192.69 -78.3,273.88 2.8,81.2 -56.3,317.17 -258.7,293.44 0,0 -52.9,21.6 -119,-12.72 -150.4,-78.03 -487.3,-832.58 -113.3,-742.76" /></g><g
         transform="scale(1.19132)"
         id="g442"><path
           id="path444"
           style="fill:#ffb27d;fill-opacity:1;fill-rule:nonzero;stroke:none"
           d="m 16088.6,4998.16 c 0,0 34.9,53.3 63.1,54.31 28.2,1.09 80.4,15.69 76.2,5.2 -4.1,-10.41 -36.5,-11.42 -39.6,-17.71 -3.2,-6.3 48,-15.7 62.6,-16.7 14.6,-1.1 49.1,0 48,-7.31 -1,-7.3 -62.1,-37.6 -105.2,-33.4 -43,4.11 -96.3,-12.6 -96.3,-12.6 l -8.8,28.21" /></g><g
         transform="scale(1.17826)"
         id="g446"><path
           id="path448"
           style="fill:#163560;fill-opacity:1;fill-rule:nonzero;stroke:none"
           d="m 15755.2,5036.14 c 0,0 19.2,-38.11 54.1,-81.82 42.1,-52.7 106.8,-113.47 188.2,-125.52 38.9,-5.68 76.9,2.63 111.9,18.16 l 0.1,0.09 c 98.8,43.88 173.1,144.7 173.1,144.7 17.4,47.53 -11.1,79.78 -11.1,79.78 0,0 -199.5,-44.9 -218.6,-35.39 -19,9.51 -129.8,328.87 -156.2,369.02 -26.4,40.14 -116.4,61.02 -116.4,61.02 l -25.1,-430.04" /></g><g
         transform="scale(1.10214)"
         id="g450"><path
           id="path452"
           style="fill:#233862;fill-opacity:1;fill-rule:nonzero;stroke:none"
           d="m 16047.4,3081 c 0,0 -65.1,-59.43 -52.4,-101.62 12.7,-42.19 71.5,-70.4 79.4,-121.94 7.9,-51.63 39.7,-79.75 68.3,-79.75 28.5,0 136.3,0 136.3,0 0,0 21,36.29 -29.8,47.27 -50.8,10.88 -70,71.59 -66.8,127.84 3.2,56.25 -4.8,131.29 -4.8,131.29 l -108,25.04 -22.2,-28.13" /></g><g
         transform="scale(1.1474)"
         id="g454"><path
           id="path456"
           style="fill:#233862;fill-opacity:1;fill-rule:nonzero;stroke:none"
           d="m 15943.7,2935.25 c 0,0 -22.5,-241.77 5,-255.28 l 351.3,0.7 c 0,0 0,40.53 -56.4,49.59 -56.5,8.98 -155.6,42.01 -172.4,115.66 -16.7,73.55 -127.5,89.33 -127.5,89.33" /></g><g
         transform="scale(1.15309)"
         id="g458"><path
           id="path460"
           style="fill:#ffb27d;fill-opacity:1;fill-rule:nonzero;stroke:none"
           d="m 15615.9,4646.66 c 72,161.31 116,207.62 107.6,257.66 -6.3,37.29 19,694.92 19,694.92 8.6,2.68 25.7,5.03 35.1,7.11 29.5,6.59 53.9,27.32 64.1,55.76 12.2,34.26 21.9,84.9 21.7,148.38 l 9.2,-1.81 155,-30.71 c 0,0 -3.6,-48.73 -3.6,-94.7 v -1.13 c -0.2,-39.89 25.9,-75.1 64.3,-86.2 19.5,-5.64 36.5,-10.49 36.5,-10.49 0,0 57,-162.44 67.8,-329.29 10.9,-166.86 -103.4,-239.36 0.9,-572.9 106.5,-340.57 -617.3,-125.75 -577.6,-36.6" /></g><g
         transform="scale(1.13382)"
         id="g462"><path
           id="path464"
           style="fill:#e8945b;fill-opacity:1;fill-rule:nonzero;stroke:none"
           d="m 16300,5876.17 c 0,0 -3.6,-49.56 -3.7,-96.31 -88.2,2.47 -134.8,83 -153.9,127.54 l 157.6,-31.23" /></g><g
         transform="scale(1.14126)"
         id="g466"><path
           id="path468"
           style="fill:#ffb27d;fill-opacity:1;fill-rule:nonzero;stroke:none"
           d="m 16223,5793.96 c 0,0 -207.3,-3.42 -207.5,125.65 -0.1,129.15 -27,215.64 105.4,223.26 132.3,7.71 158.1,-41.53 168.6,-84.64 10.5,-43.11 -12.6,-260.07 -66.5,-264.27" /></g><g
         transform="scale(1.13533)"
         id="g470"><path
           id="path472"
           style="fill:#163560;fill-opacity:1;fill-rule:nonzero;stroke:none"
           d="m 16300,6178.14 c 0,0 -57.1,-152.2 -144.6,-174.75 -87.6,-22.55 -125.5,0.97 -125.5,0.97 0,0 67.2,53.38 81.1,146.48 0,0 146,99.79 189,27.3" /></g><g
         transform="scale(1.14345)"
         id="g474"><path
           id="path476"
           style="fill:#163560;fill-opacity:1;fill-rule:nonzero;stroke:none"
           d="m 16170.1,6121.98 c 0,0 42,-15.66 59.2,-46.35 17,-29.91 31.3,-69.62 28,-118.24 0,0 42.7,102.76 -5.2,160.83 -50.9,61.65 -82,3.76 -82,3.76" /></g><g
         transform="scale(1.13794)"
         id="g478"><path
           id="path480"
           style="fill:#ebf3fa;fill-opacity:1;fill-rule:nonzero;stroke:none"
           d="m 16225,5891.15 c 0,0 14.3,-18.9 43,-17.58 23.1,1.15 32,21.18 32,21.18 0,0 -42.4,10.19 -75,-3.6" /></g><g
         transform="scale(1.14999)"
         id="g482"><path
           id="path484"
           style="fill:#163560;fill-opacity:1;fill-rule:nonzero;stroke:none"
           d="m 15686,5322.67 c 0,0 0.8,-97.57 6,-185.92 3.5,-58.61 8.9,-113.13 17.3,-132.61 21.1,-48.7 44.9,-56.61 44.9,-56.61 l 184.1,-45.04 64.7,-15.83 204,60.87 c 0,0 93,259.48 55.7,405.57 -37.4,146 -94.4,247.48 -94.4,247.48 0,0 -166.5,-163.13 -383.4,13.83 l -98.9,-291.74" /></g><g
         transform="scale(1.15056)"
         id="g486"><path
           id="path488"
           style="fill:#ed7d2b;fill-opacity:1;fill-rule:nonzero;stroke:none"
           d="m 16186.1,4905.79 c 0,0 101,-314.45 107.5,-421.53 6.4,-106.99 -193.2,-1520.74 -201.2,-1570.02 -7.6,-46.5 -65.3,-76.14 -65.3,-76.14 0,0 -26.5,-15.73 -64.4,-5.04 -52.6,14.86 -69.3,32.68 -69.3,32.68 0,0 -78.6,1008.2 -29.9,1368.38 48.6,360.17 49.2,671.67 49.2,671.67 h 273.4" /></g><g
         transform="scale(1.14207)"
         id="g490"><path
           id="path492"
           style="fill:#f99746;fill-opacity:1;fill-rule:nonzero;stroke:none"
           d="m 15875.2,4951.64 c 0,0 -155.2,-208.22 -169.7,-349.02 -14.5,-140.8 -22.7,-635.43 -53.5,-772.63 -30.9,-137.3 -144.2,-401.47 -144.2,-829.55 0,0 11.9,-24.52 48.2,-37.66 11.6,-4.11 27.2,-8.23 42.3,-11.64 30,-6.92 60.8,7.79 74.4,35.29 76.6,154.19 320.6,651.53 333.1,754.77 8.8,73.11 85.9,556.62 253.8,840.32 40.4,68.12 -24.7,339.03 -24.7,339.03 l -359.7,31.09" /></g><g
         transform="scale(1.13815)"
         id="g494"><path
           id="path496"
           style="fill:#ffffff;fill-opacity:1;fill-rule:nonzero;stroke:none"
           d="m 16226.5,5886.55 c 0,0 3.7,-15.2 41.6,-12.83 0,0 31.9,1.94 30.9,18.72 0,0 -30.9,11.95 -72.5,-5.89" /></g><g
         transform="scale(1.14477)"
         id="g498"><path
           id="path500"
           style="fill:#233862;fill-opacity:1;fill-rule:nonzero;stroke:none"
           d="m 16284.1,4979.35 c 0,0 -40.7,-32.23 -121.7,-33.89 -96.7,-1.92 -336.4,24.72 -336.4,24.72 0,0 -10.6,-29.78 -10.2,-61.23 0,0 292.7,-73.82 462.3,-10.75 0,0 21.9,41.15 6,81.15" /></g><g
         transform="scale(1.13983)"
         id="g502"><path
           id="path504"
           style="fill:#ffffff;fill-opacity:1;fill-rule:nonzero;stroke:none"
           d="m 16226,4933.35 c 0,-19.57 13.3,-35.44 29.7,-35.44 16.3,0 29.6,15.87 29.6,35.44 0,19.56 -13.3,35.44 -29.6,35.44 -16.4,0 -29.7,-15.88 -29.7,-35.44 z m -14.7,0 c 0,27.63 19.9,50.18 44.4,50.18 24.4,0 44.3,-22.55 44.3,-50.18 0,-27.64 -19.9,-50.18 -44.3,-50.18 -24.5,0 -44.4,22.54 -44.4,50.18" /></g><g
         transform="scale(1.12146)"
         id="g506"><path
           id="path508"
           style="fill:#163560;fill-opacity:1;fill-rule:nonzero;stroke:none"
           d="m 15773,4532.84 470.2,-101.39 56.8,263.59 -470.1,101.39 -56.9,-263.59" /></g><g
         transform="scale(1.12146)"
         id="g510"><path
           id="path512"
           style="fill:#17467f;fill-opacity:1;fill-rule:nonzero;stroke:none"
           d="m 16300,4695.04 c 0,0 -131.4,-110.12 -277.5,-71.87 -146.1,38.34 -192.6,173.26 -192.6,173.26 l 470.1,-101.39" /></g><g
         transform="scale(1.11874)"
         id="g514"><path
           id="path516"
           style="fill:#17467f;fill-opacity:1;fill-rule:nonzero;stroke:none"
           d="m 16256.3,4723.72 c 0,-9.65 7.9,-17.43 17.5,-17.43 9.7,0 17.4,7.78 17.4,17.43 0,9.66 -7.7,17.52 -17.4,17.52 -9.6,0 -17.5,-7.86 -17.5,-17.52 z m -8.7,0 c 0,14.48 11.7,26.19 26.2,26.19 14.4,0 26.2,-11.71 26.2,-26.19 0,-14.39 -11.8,-26.19 -26.2,-26.19 -14.5,0 -26.2,11.8 -26.2,26.19" /></g><g
         transform="scale(1.09061)"
         id="g518"><path
           id="path520"
           style="fill:#ffb27d;fill-opacity:1;fill-rule:nonzero;stroke:none"
           d="m 16300,4811.54 c 0,0 -0.2,-39.25 -7.7,-58.22 -7.4,-18.89 -29.8,-44.2 -37.2,-44.2 -7.5,0 6.9,39.52 3.1,38.69 -3.8,-0.82 -21.7,-65.65 -34.8,-67.21 -13,-1.65 -24.8,72.72 -17.9,101.96 6.8,29.16 36.2,64.19 36.2,64.19 l 58.3,-35.21" /></g><g
         transform="scale(1.12048)"
         id="g522"><path
           id="path524"
           style="fill:#163560;fill-opacity:1;fill-rule:nonzero;stroke:none"
           d="m 16200.7,5762.18 c 0,0 -116.8,-15.8 -179.7,-139.67 -48.5,-95.68 -81.9,-396.71 -116.2,-491.58 -32.7,-90.67 -78,-266.04 -103.2,-406.52 -2,-10.98 4,-21.69 14.2,-25.79 l 43,-16.96 c 9.3,-3.75 19.9,-0.18 24.9,8.39 38.2,64.08 188.7,320.76 240.9,469.17 61.2,173.59 175.4,281.4 175.4,281.4 l -99.3,321.56" /></g><g
         transform="scale(1.11942)"
         id="g526"><path
           id="path528"
           style="fill:#0c2442;fill-opacity:1;fill-rule:nonzero;stroke:none"
           d="m 16272.5,4741.13 c 0.3,4.29 27.5,434.06 22.2,675.62 -2.6,126.85 -22.2,216.27 -38.2,268.89 -17.4,57.44 -43.4,80.93 -44.1,82.09 l -8.9,-2.68 c 0.6,-1.07 72.8,-109.61 77.9,-348.57 5.2,-241.02 -22,-670.17 -22.2,-674.46 l 13.3,-0.89" /></g><path
         id="path530"
         style="fill:#ffb27d;fill-opacity:1;fill-rule:nonzero;stroke:none"
         d="m 10030.1,3316.6 -74.69,24.3 c 0,0 -15.51,202.8 17.73,445.9 21.05,154 59.66,320.8 129.56,454.7 31.7,60.7 69.7,114.6 115.5,157.5 0,0 57.3,133.1 133.3,311.1 84.4,197.9 612.8,255.9 311.3,-158.6 -61.8,-85.1 -128.3,-234.8 -207.9,-325.7 -136,-155.4 -232,-336.9 -298,-496.6 -94.2,-228.5 -126.8,-412.6 -126.8,-412.6" /><path
         id="path532"
         style="fill:#ffb27d;fill-opacity:1;fill-rule:nonzero;stroke:none"
         d="m 9860.01,3305.3 c -22.66,-36.7 26.26,-72.7 86.77,-106.6 60.52,-33.8 35.46,-37.2 112.82,-94.9 77.4,-57.6 123,-51.2 134.9,-42.8 10.5,7.5 -21.1,43.1 -54.3,82 -4.2,4.9 -8.3,9.8 -12.5,14.8 -37,44.4 -42.5,100.1 -59.9,157.9 -16.5,54.7 9.6,190.8 9.6,190.8 l -103.28,82 c 0,0 -20.98,-123.7 -32.53,-175.2 -6.79,-30.4 -31.56,-55.7 -51.65,-74.4 -10.89,-10.2 -21.97,-20.6 -29.93,-33.6" /><path
         id="path534"
         style="fill:#1c468a;fill-opacity:1;fill-rule:nonzero;stroke:none"
         d="m 9946.78,3198.7 c 60.52,-33.8 35.46,-37.2 112.82,-94.9 77.4,-57.6 123,-51.2 134.9,-42.8 10.5,7.5 -21.1,43.1 -54.3,82 l -1,-0.4 c 0,0 -69.9,9.4 -129.6,62.4 -48.61,43.2 -86.31,103.8 -119.66,133.9 -10.89,-10.2 -21.97,-20.6 -29.93,-33.6 -22.66,-36.7 26.26,-72.7 86.77,-106.6" /><path
         id="path536"
         style="fill:#ffb27d;fill-opacity:1;fill-rule:nonzero;stroke:none"
         d="m 9588.51,3184.9 -86.13,-44.6 c 0,0 -51.53,67.1 -97.55,148.2 -32.21,56.7 -61.79,120.4 -69.03,172.5 -17.6,126.7 -151.66,334.8 -137.71,370.2 13.95,35.5 279.81,96.8 279.81,96.8 0,0 51.97,-355.8 86.53,-585.8 10.09,-67.2 18.66,-123.6 24.08,-157.3" /><path
         id="path538"
         style="fill:#2b478b;fill-opacity:1;fill-rule:nonzero;stroke:none"
         d="m 9522.9,3681.7 c -49.22,-23.9 -94.93,-37.6 -134.15,-45.3 -58.46,-11.4 -102.44,-9.5 -121.89,-7.6 -7.2,0.7 -11.03,1.4 -11.03,1.4 0,0 -47.84,34.5 -103.28,114.8 -50.81,73.6 -88.57,178.9 -88.57,180.2 l 405.97,39.5 52.95,-283" /><path
         id="path540"
         style="fill:#233862;fill-opacity:1;fill-rule:nonzero;stroke:none"
         d="m 9388.75,3636.4 c -58.46,-11.4 -102.44,-9.5 -121.89,-7.6 l 45.62,177.3 c 0,0 59.08,-92.4 76.27,-169.7" /><path
         id="path542"
         style="fill:#ffffff;fill-opacity:1;fill-rule:nonzero;stroke:none"
         d="m 9588.51,3184.9 -86.13,-44.6 c 0,0 -51.53,67.1 -97.55,148.2 35.84,2.7 98.12,13.4 159.6,53.7 10.09,-67.2 18.66,-123.6 24.08,-157.3" /><path
         id="path544"
         style="fill:#ffb27d;fill-opacity:1;fill-rule:nonzero;stroke:none"
         d="m 9392.79,3846.7 c 0,0 -108.83,-153.6 -174.76,-369.4 -15.5,-50.8 -68.36,-114.1 -121.8,-170.4 -51.84,-54.6 -104.21,-102.5 -123.58,-126.1 l -87.74,42.2 c 0,0 30.83,88.5 76.45,168.7 16.93,29.9 35.85,58.6 56.07,81.2 27.94,31.3 18.74,426.2 46.55,452.3 27.85,26 328.81,-78.5 328.81,-78.5" /><path
         id="path546"
         style="fill:#2b478b;fill-opacity:1;fill-rule:nonzero;stroke:none"
         d="m 9444.63,3938.1 -160.66,-326.6 c -0.93,-0.1 -119.75,-3.7 -204.13,43.6 -48.38,27.1 -70.1,59.1 -70.1,59.1 l 50.08,223.9 h 384.81" /><path
         id="path548"
         style="fill:#b64c41;fill-opacity:1;fill-rule:nonzero;stroke:none"
         d="m 9156.85,5028.6 c 0,0 -54.66,114.9 -186.69,46.5 -132.03,-68.4 -3.49,-329.2 -72.79,-393.6 -69.29,-64.5 25.12,-106.6 11.05,-152.8 -14.05,-46.2 26.12,-98.8 118.51,-92.6 92.39,6.2 189.68,1.2 231.42,82 41.74,80.9 32.26,258.7 16.13,283.7 -16.13,25 -117.63,226.8 -117.63,226.8" /><path
         id="path550"
         style="fill:#ffb27d;fill-opacity:1;fill-rule:nonzero;stroke:none"
         d="m 9145.86,4551.1 0.43,-0.3 -0.43,0.3" /><path
         id="path552"
         style="fill:#ffb27d;fill-opacity:1;fill-rule:nonzero;stroke:none"
         d="m 9370.8,4415.4 -224.51,135.4 c 1.25,0.5 5.79,7.3 22.57,55.9 7.15,20.7 10.94,38.6 12.81,52.9 0.19,1.4 0.37,2.8 0.5,4.1 2.3,20.7 0.62,32.7 0.62,32.7 l 49.18,-17.8 90.95,-33 c -1.05,-23 2.18,-39.3 7.09,-50.4 11.87,-27 34.01,-27.2 34.63,-27.2 l 6.16,-152.6" /><path
         id="path554"
         style="fill:#ed985f;fill-opacity:1;fill-rule:nonzero;stroke:none"
         d="m 9330.01,4595.2 c -87.91,-7.4 -137.4,49.9 -148.34,64.4 -1.62,2.1 -2.43,3.3 -2.43,3.3 0,0 1.06,0.3 2.93,0.8 7.15,2.1 26.55,8 49.8,14.9 l 90.95,-33 c -1.05,-23 2.18,-39.3 7.09,-50.4" /><path
         id="path556"
         style="fill:#ffb27d;fill-opacity:1;fill-rule:nonzero;stroke:none"
         d="m 9334.41,4626.8 c 0,0 -195.3,-21.5 -199.3,110.6 -4,132.1 -32.87,192.5 102.26,204.3 135.13,11.7 167.05,-36.9 175.01,-81.6 24.88,-139.6 -22.95,-227.4 -77.97,-233.3" /><path
         id="path558"
         style="fill:#d35c2b;fill-opacity:1;fill-rule:nonzero;stroke:none"
         d="m 8970.16,5075.1 c -2.73,6.1 -4.67,10.1 -4.67,10.1 2.03,-2.8 3.56,-6.3 4.67,-10.1" /><path
         id="path560"
         style="fill:#ffb27d;fill-opacity:1;fill-rule:nonzero;stroke:none"
         d="m 9397.2,4554.8 c 0,0 187.27,143.9 207.26,191.5 19.99,47.6 105.96,222 128.17,239.8 0,0 46.56,6 53.22,-26.3 6.66,-32.2 -44.34,-223.5 -79.87,-281.2 -35.54,-57.8 -205.82,-253.5 -261.74,-282 l -47.04,158.2" /><path
         id="path562"
         style="fill:#ffb27d;fill-opacity:1;fill-rule:nonzero;stroke:none"
         d="m 9852.31,5074.2 c -3.09,-16.7 -9.88,-34.6 -17.91,-43.8 -10.49,-12.4 -27.17,-37.1 -37.67,-53.1 -6.79,-9.9 -11.11,-17.3 -11.11,-17.3 l -53.11,25.9 c 0,0 -1.24,90.2 33.96,109.3 1.24,0.6 1.86,1.2 3.09,1.2 14.82,8.1 29.03,13.6 41.38,17.3 16.67,4.3 29.64,5 37.05,0.6 6.79,-3.7 8.03,-21.6 4.32,-40.1" /><path
         id="path564"
         style="fill:#b64c41;fill-opacity:1;fill-rule:nonzero;stroke:none"
         d="m 9247.87,4877.1 c -69.11,17.5 -42.68,-104.9 -60.15,-96.5 -19.54,9.4 -53.11,9.2 -47.81,-14.4 5.3,-23.6 12.95,-32 16.94,-46.7 3.98,-14.8 -0.03,-43.9 -16.1,-38 -16.07,5.8 -165.53,176.5 -60,309.4 105.52,133 420.2,51.1 321.11,-88 -17.43,-24.4 -104.78,-38.2 -153.99,-25.8" /><path
         id="path566"
         style="fill:#f99746;fill-opacity:1;fill-rule:nonzero;stroke:none"
         d="m 9498.69,3890 c 0,0 -58.68,-31.2 -151.08,-29.7 -58.86,0.9 -183.86,26.5 -264.22,55.5 -45.8,16.5 -77.12,34.1 -73.34,48.9 5.42,21.3 44.64,185 80.89,336.5 33.14,138.5 63.79,266.8 63.79,266.8 0,0 91.47,-65 144.77,-42.1 53.31,23 46.47,48.9 46.47,48.9 0,0 34.87,14.1 51.22,8.9 16.35,-5.2 62.77,21.1 62.77,21.1 0,0 51.26,-39.6 53.21,-124.7 0.32,-12.6 -0.44,-26.2 -2.66,-40.8 l -37,-42.7 c 0,0 78.49,-247.4 25.18,-506.6" /><path
         id="path568"
         style="fill:#aa443e;fill-opacity:1;fill-rule:nonzero;stroke:none"
         d="m 9731.15,3079.1 h -257.18 c 0,0 -4.91,41.9 1,77.6 0.71,4.4 2.97,8.3 6.35,11.8 15.06,-5.1 37.18,-8.7 61.8,0.1 20.16,7.2 35.09,18.3 45.48,28.3 2.66,-2.6 55.79,-53.2 80.36,-53.2 25.19,0 63.66,-12.1 62.19,-64.6" /><path
         id="path570"
         style="fill:#ffffff;fill-opacity:1;fill-rule:nonzero;stroke:none"
         d="m 9096.23,3306.9 c -51.84,-54.6 -104.21,-102.5 -123.58,-126.1 l -87.74,42.2 c 0,0 30.83,88.5 76.45,168.7 15.69,-24.4 56.86,-74.6 134.87,-84.8" /><path
         id="path572"
         style="fill:#aa443e;fill-opacity:1;fill-rule:nonzero;stroke:none"
         d="m 8991.66,3203.5 c 0,0 -3.21,-55.8 15.4,-63.2 18.61,-7.4 53.31,-25.7 53.31,-61.2 h -128.83 c 0,0 -88.84,43.7 -100.69,62.3 -11.84,18.6 59.19,97.8 59.19,97.8 0,0 43.65,-48.3 101.62,-35.7" /><path
         id="path574"
         style="fill:#ffb27d;fill-opacity:1;fill-rule:nonzero;stroke:none"
         d="m 9204.79,4110.9 c 0,0 56.41,10.6 78.48,-3.9 22.06,-14.4 28.59,-37 12.7,-46.3 -49.79,-28.9 -100.26,3.1 -100.26,3.1 l 9.08,47.1" /><path
         id="path576"
         style="fill:#ffb27d;fill-opacity:1;fill-rule:nonzero;stroke:none"
         d="m 9157.01,4550.3 c 0,0 -173.74,-36.8 -242.26,-306.9 -6.71,-26.4 0.23,-54.6 18.49,-74.8 31.51,-34.9 100.96,-86 262.47,-104.8 17.63,-2.1 20.01,42.7 20.01,42.7 -1.76,-3.6 -109.72,69.7 -155.67,109.1 -8.31,7.2 -7.96,22.1 -1.96,31.3 15.52,23.7 41.57,64.6 50.33,85.7 12.78,30.6 97.14,203.8 48.59,217.7" /><path
         id="path578"
         style="fill:#f99746;fill-opacity:1;fill-rule:nonzero;stroke:none"
         d="m 9154.75,4568 c 0,0 -102.14,-7.3 -185.43,-118.3 0,0 28.18,-102.2 160.49,-129.5 0,0 81.56,184 24.94,247.8" /><path
         id="path580"
         style="fill:#b64c41;fill-opacity:1;fill-rule:nonzero;stroke:none"
         d="m 10547.5,7206.6 c 0,0 -182.2,22.1 -273.9,-147.5 -91.6,-169.6 -84.2,-415.3 -173.1,-531.2 -88.8,-115.9 14.9,-225.8 14.9,-225.8 l 692.2,-23.4 c 0,0 48.1,129.6 0,285.1 -48.1,155.4 186.9,619.2 -260.1,642.8" /><path
         id="path582"
         style="fill:#e8945b;fill-opacity:1;fill-rule:nonzero;stroke:none"
         d="m 11133.6,5148 c -7.1,-27 -30.3,-88.1 -48.3,-88.1 -14.7,0 -20,74.8 -38.9,90.7 -27.4,23 -49.7,71.3 -53.3,83.1 -7.3,24.1 -14.2,29.1 -14.2,29.1 l 0.1,0.1 h -0.1 c 0,0 -218.9,400.1 -236,502.5 -5.6,33.4 -20,100.3 -36.8,175.2 -18.3,81.5 -39.5,172.5 -55.5,240.7 69.9,13.6 147.1,18.4 210.2,19.6 12.8,-82.9 24.3,-167.6 34.2,-241.2 14.7,-109.5 25.9,-194.5 32.8,-212.7 19,-50 71.4,-319.3 120.9,-459.1 5.7,-13.8 21.7,-49.6 39.3,-61.8 22,-15.2 52.6,-51 45.6,-78.1" /><path
         id="path584"
         style="fill:#ffb27d;fill-opacity:1;fill-rule:nonzero;stroke:none"
         d="m 10736.9,5543 c -120.9,386.5 122.4,381.4 109.8,574.8 -12.6,193.4 -162.3,401.3 -162.3,401.3 0,0 -5.3,0.6 -14.7,1.4 -5.1,0.5 -9.6,3.9 -11.3,8.7 -5.6,15.3 -7.2,48.7 -7.1,83.6 0.1,53.2 4.2,109.7 4.2,109.7 l -179.6,35.6 -10.7,2.1 c 0.3,-90.3 -16.8,-158.2 -35.3,-196.2 -8.8,-18 -25.9,-30.3 -45.8,-33.1 -38.6,-5.4 -106.5,-17 -152.2,-36.1 -22.3,-9.3 -39.2,-20.3 -45.1,-33.3 -49.3,-108.5 -98.6,-382.1 -133.2,-577.3 -19.3,-108.8 -34,-193.3 -41.6,-211.1 -21.45,-50 -86.86,-324.7 -142.75,-460.2 l 71.38,-21.4 c 0,0 235.47,390.6 256.87,492.3 7,33.1 24.1,99.3 44.1,173.5 3,11.2 6.1,22.6 9.2,34.1 35.3,-95.7 53.3,-139.9 52.3,-181.3 -1.4,-58.8 -41.3,-111.7 -124.7,-298.6 -46,-103.3 681.9,-263.2 558.5,131.5" /><path
         id="path586"
         style="fill:#e8945b;fill-opacity:1;fill-rule:nonzero;stroke:none"
         d="m 10655.5,6722.5 c 0,0 -4.1,-56.5 -4.2,-109.7 -100.5,2.8 -153.6,94.5 -175.4,145.3 l 179.6,-35.6" /><path
         id="path588"
         style="fill:#ffb27d;fill-opacity:1;fill-rule:nonzero;stroke:none"
         d="m 10689,6672.1 c 0,0 -237.7,-3.9 -237.9,144.2 -0.1,148.1 -30.9,247.3 120.8,256.1 151.8,8.8 181.4,-47.7 193.5,-97.1 12,-49.5 -14.5,-298.3 -76.4,-303.2" /><path
         id="path590"
         style="fill:#ffb27d;fill-opacity:1;fill-rule:nonzero;stroke:none"
         d="m 11020.8,3220.8 -76.3,-18.8 c 0,0 -120,164.3 -219.7,388.4 -63.2,142.1 -118.2,304.2 -129.3,454.9 -5,68.2 -1,134.1 15.2,194.7 0,0 -21.3,143.3 -50.5,334.6 -32.3,212.7 -74.3,484.6 -107.2,684.5 l 19.8,5.9 324.6,189.8 c 0,0 149.2,-339.9 111.1,-851.1 -7.9,-104.9 14.5,-267.1 -5.3,-386.4 -33.8,-203.7 -19.9,-408.6 8.1,-579.1 40.2,-243.8 109.5,-417.4 109.5,-417.4" /><path
         id="path592"
         style="fill:#cb7d45;fill-opacity:1;fill-rule:nonzero;stroke:none"
         d="m 10236.7,5929.9 c 44.6,-123.1 67.5,-173.2 66.4,-219.8 142,219.9 398.5,253.1 398.5,253.1 l -487.1,55.7 c 4.5,-30.2 11.7,-60 22.2,-89" /><path
         id="path594"
         style="fill:#b64c41;fill-opacity:1;fill-rule:nonzero;stroke:none"
         d="m 10758.3,7057.6 c -36.7,44.5 -64.4,34.8 -80,21.4 -127.5,70.7 -213.8,-34.2 -213.8,-34.2 -15.9,-106.3 -92.5,-167.1 -92.5,-167.1 0,0 42.3,-22.5 143.2,-1.1 119.8,25.4 152.7,160.4 157.5,177.9 14.5,-13 43.1,-41.3 51.9,-69.1 11.8,-37.7 17.1,-115.3 39.8,-112.7 0,0 49,118.1 -6.1,184.9" /><path
         id="path596"
         style="fill:#ffb27d;fill-opacity:1;fill-rule:nonzero;stroke:none"
         d="m 9874.31,5224.8 c 0,0 -21.7,-51.2 -44.3,-65.4 -22.59,-14.3 -54.7,-48.8 -48.75,-76.1 5.95,-27.4 11.89,-70.2 40.43,-70.2 28.54,0 95.13,126 103.46,149.8 8.32,23.8 15.46,28.6 15.46,28.6 l -66.3,33.3" /><path
         id="path598"
         style="fill:#ffffff;fill-opacity:1;fill-rule:nonzero;stroke:none"
         d="m 10994.5,4100.9 c -287,-164.1 -1042.76,97.1 -1041.99,112.2 4,80.3 76.59,563.6 161.89,1024.8 52.4,283.7 192,389.6 169.7,407.5 l -0.3,0.3 c -86.1,61.1 -48.9,165.9 -43.2,203.5 -26.4,-7.1 -111.7,-23.2 -209.3,30.6 40.2,196.6 97.5,472.2 154.9,581.4 2.7,5.3 7.5,10.2 14.1,14.9 l -0.6,0.6 c 53.8,39.2 163.6,51.2 163.6,51.2 0,0 59.2,-144.9 77.3,-167.5 117.1,-146.4 327.6,-80.3 298.9,10.8 -10.3,33.2 -63.5,137.7 -69.9,149.4 l 14.9,-1.4 c 35.3,-4.7 60.3,-8.3 78.3,-11.4 35.3,-6 44,-10.2 52.8,-17 31,-30.9 71.3,-107.9 74.5,-245.3 1.3,-51.1 54.4,-615.1 -117.7,-605.3 -3.9,0.2 -0.5,-9 6.9,-26.5 24.3,-55.8 93.3,-196 113.3,-375.8 65,-584.9 101.9,-1137 101.9,-1137" /><path
         id="path600"
         style="fill:#ffffff;fill-opacity:1;fill-rule:nonzero;stroke:none"
         d="m 10620.7,6759.6 c 0,0 4.5,-18.3 50,-14.9 0,0 38.1,2.8 36.7,22.9 0,0 -37.2,13.8 -86.7,-8" /><path
         id="path602"
         style="fill:#ffb27d;fill-opacity:1;fill-rule:nonzero;stroke:none"
         d="m 9925.15,5162.9 c 0,0 -7.81,-57.5 -22.98,-70.8 -15.16,-13.3 -17.38,-37.2 -32.92,-24.3 -15.55,12.8 55.9,95.1 55.9,95.1" /><path
         id="path604"
         style="fill:#ffb27d;fill-opacity:1;fill-rule:nonzero;stroke:none"
         d="m 10882.1,3121.6 c 0.1,-43.2 60.6,-48 129.9,-44.9 69.3,3 49.7,-13.1 145.9,-21.3 96.1,-8.3 131.5,21.2 137.2,34.6 5,11.9 -40.6,25.5 -89.3,41.1 -6.2,1.9 -12.3,4 -18.4,6 -54.9,18.2 -88.9,62.7 -134.1,102.7 -42.9,37.8 -92.3,167.2 -92.3,167.2 l -131,15.4 c 0,0 47.3,-116.2 64.6,-166.1 10.2,-29.4 2.5,-64 -4.8,-90.4 -3.8,-14.4 -7.8,-29.1 -7.7,-44.3" /><path
         id="path606"
         style="fill:#1c468a;fill-opacity:1;fill-rule:nonzero;stroke:none"
         d="m 11012,3076.7 c 69.3,3 49.7,-13.1 145.9,-21.3 96.1,-8.3 131.5,21.2 137.2,34.6 5,11.9 -40.6,25.5 -89.3,41.1 l -0.7,-0.9 c 0,0 -64.3,-28.8 -143,-15.1 -64.1,11.1 -128.1,42.8 -172.3,50.8 -3.8,-14.4 -7.8,-29.1 -7.7,-44.3 0.1,-43.2 60.6,-48 129.9,-44.9" /><path
         id="path608"
         style="fill:#f99746;fill-opacity:1;fill-rule:nonzero;stroke:none"
         d="m 10994.5,4100.9 c -287,-164.1 -1042.76,97.1 -1041.99,112.2 4,80.3 76.59,563.6 161.89,1024.8 52.4,283.7 192,389.6 169.7,407.5 5.3,-4.3 86.3,-69.6 234.8,-60.8 132.9,8 235.3,24.7 260.4,29.1 24.3,-55.8 93.3,-196 113.3,-375.8 65,-584.9 101.9,-1137 101.9,-1137" /><path
         id="path610"
         style="fill:#ed7d2b;fill-opacity:1;fill-rule:nonzero;stroke:none"
         d="m 10283.8,5645.7 c 0,0 235,-98.1 488.6,-5.5 l 12.9,-39.8 c 0,0 -260.9,-90.6 -511.7,12.5 l 10.2,32.8" /><g
         transform="scale(1.88515)"
         id="g612"><path
           id="path614"
           style="fill:#2e3552;fill-opacity:1;fill-rule:nonzero;stroke:none"
           d="M 16282.1,1591.44 H 521.748 c -9.845,0 -17.897,8.06 -17.897,17.93 v 6.1 c 0,9.81 8.052,17.87 17.897,17.87 H 16282.1 c 9.9,0 17.9,-8.06 17.9,-17.87 v -6.1 c 0,-9.87 -8,-17.93 -17.9,-17.93" /></g><g
         transform="scale(1.26658)"
         id="g616"><path
           id="path618"
           style="fill:#233862;fill-opacity:1;fill-rule:nonzero;stroke:none"
           d="m 16300,2408.86 h -201 c 1.5,10.5 6.6,42.63 16,72.16 3.3,10.26 7.1,20.29 11.5,28.98 19.5,39 143.7,14.21 143.7,14.21 0,0 11.5,-9.95 20.5,-47.69 3.9,-16.58 7.5,-38.69 9.3,-67.66" /></g><g
         transform="scale(1.2456)"
         id="g620"><path
           id="path622"
           style="fill:#9db0f4;fill-opacity:1;fill-rule:nonzero;stroke:none"
           d="m 16199.2,5571.61 c 0,0 -162.8,-28.59 -199.6,-124.76 -36.9,-96.1 -244.9,-1649.09 -244.9,-1649.09 0,0 103,-81.56 324.1,-52.26 221.2,29.3 120.4,1826.11 120.4,1826.11" /></g><g
         transform="scale(1.21945)"
         id="g624"><path
           id="path626"
           style="fill:#233862;fill-opacity:1;fill-rule:nonzero;stroke:none"
           d="m 16299,2567.8 c -0.6,-28.37 -4.1,-55.27 -14.4,-65.85 h -413 c 5.3,14.93 20.2,37.4 62.5,44.28 48.2,7.79 123.3,31 167.1,77.34 15.7,16.48 27.3,35.91 32.4,58.63 19.4,86.51 160.7,-26.49 160.7,-26.49 0,0 5.7,-45.59 4.7,-87.91" /></g><g
         transform="scale(1.2556)"
         id="g628"><path
           id="path630"
           style="fill:#233862;fill-opacity:1;fill-rule:nonzero;stroke:none"
           d="m 15657,2534.72 c 44.9,-14.25 130.5,-57.9 184.9,-37.35 35.2,13.22 231.8,581.87 244.5,830.6 1,18.08 4.5,43.32 10.1,74.07 11.6,64.19 32,152.43 55.4,249.76 63,260.83 148.1,587.13 146.2,691.38 -2.8,161.83 -482.3,33.92 -482.3,33.92 0,0 -33,-132.76 -39.6,-325.02 -13,-381.57 -48.8,-1026.04 -146.2,-1473.63 -4.1,-19.04 8.4,-37.83 27,-43.73" /></g><g
         transform="scale(1.27582)"
         id="g632"><path
           id="path634"
           style="fill:#2b478b;fill-opacity:1;fill-rule:nonzero;stroke:none"
           d="m 15736.4,4273.79 249.4,-1808.09 c 0,0 109.6,-26.41 194.8,-5.33 0,0 73.1,961.66 67,1194.14 -6.1,232.47 52.4,622.1 -13.4,665.06 -65.7,42.95 -497.8,-45.78 -497.8,-45.78" /></g><g
         transform="scale(1.27314)"
         id="g636"><path
           id="path638"
           style="fill:#ffffff;fill-opacity:1;fill-rule:nonzero;stroke:none"
           d="m 16300,5368.06 c 0,0 -262.7,169.9 -451.2,83.03 -30,-13.83 -64.2,-52.47 -88.7,-79.49 -68.2,-75.09 -201.3,-1267.34 -201.3,-1267.34 0,0 377.8,-127.95 741.2,43.44 v 1220.36" /></g><g
         transform="scale(1.23674)"
         id="g640"><path
           id="path642"
           style="fill:#9db0f4;fill-opacity:1;fill-rule:nonzero;stroke:none"
           d="m 16300,5615.99 c 0,0 -273.8,-112.23 -310.9,-198.42 -37.1,-86.2 -157.6,-615.66 -157.6,-677.76 0,-62.09 209.8,-13.9 243.6,86.28 28.1,83.12 122.7,338.55 172.6,500.11 l 52.3,289.79" /></g><g
         transform="scale(1.25712)"
         id="g644"><path
           id="path646"
           style="fill:#ffb27d;fill-opacity:1;fill-rule:nonzero;stroke:none"
           d="m 16091.6,5440.76 c 58.8,-11.54 145.2,0.79 208.4,42.48 -28.6,68.17 -40.3,122.02 -44.4,156.86 -0.2,1.91 -0.4,3.66 -0.6,5.41 -1.9,18.06 -1.6,30.31 -0.7,35.96 h -152.1 c 0,0 -41.5,-19.02 -41.5,-32.14 0,-7.08 -0.1,-13.76 -0.2,-20.21 -0.3,-17.42 -1,-32.69 -1.9,-45.81 -2.9,-42.64 -7.8,-62.77 -7.8,-62.77 0,0 -18.6,-68.09 40.8,-79.78" /></g><g
         transform="scale(1.25394)"
         id="g648"><path
           id="path650"
           style="fill:#e2915a;fill-opacity:1;fill-rule:nonzero;stroke:none"
           d="m 16099.3,5597.46 c 115.4,-22.34 182.4,40.75 197.5,56.94 2.2,2.31 3.2,3.74 3.2,3.74 -1.2,0.56 -2.5,1.12 -3.8,1.68 -43,17.39 -140.5,3.59 -195,-16.43 -0.3,-17.46 -1,-32.77 -1.9,-45.93" /></g><g
         transform="scale(1.26227)"
         id="g652"><path
           id="path654"
           style="fill:#ffb27d;fill-opacity:1;fill-rule:nonzero;stroke:none"
           d="m 16226.8,5683.17 c -20.5,-110.35 -162.9,-106.71 -224.4,-99.74 -17.3,1.9 -28.2,4.12 -28.2,4.12 -19.4,5.23 -30.4,35.97 -35.5,76.21 -10,79.7 2.7,196.71 16.1,226.66 20.3,45 58.5,93.72 201.8,58.54 143.4,-35.17 96.5,-124.45 70.2,-265.79" /></g><g
         transform="scale(1.26856)"
         id="g656"><path
           id="path658"
           style="fill:#233862;fill-opacity:1;fill-rule:nonzero;stroke:none"
           d="m 15870.4,5922.37 c 19.5,27.03 60.8,59.98 98.4,80.32 80.6,43.59 183.9,-1.42 184.3,-1.58 116.5,-51.23 146.9,-140.39 85.1,-279.21 -65.3,-146.86 -127.5,-130.3 -127.5,-130.3 0,0 13.2,8.19 12,53.99 -0.1,2.61 -0.1,4.73 -0.2,6.63 -0.7,9.38 2.7,18.76 9.7,25.06 14.4,12.85 21.5,51.95 9.4,62.83 -14.6,13.09 -35.2,-2.84 -41.7,-15.05 -5.8,-8.68 -16,-11.75 -25.6,-5.68 -36.3,22.94 -12.8,68.74 -47.4,96.8 -34.7,28.06 -105,4.5 -156.9,26.88 -68,25.38 -14.3,58.97 0.4,79.31" /></g><g
         transform="scale(1.27922)"
         id="g660"><path
           id="path662"
           style="fill:#aec3ff;fill-opacity:1;fill-rule:nonzero;stroke:none"
           d="m 15722.1,3586.87 c 22.8,-5.86 45.3,-10.63 67.7,-14.38 19.8,-3.37 39.5,-5.87 59.3,-7.51 111.9,-9.77 224.3,6.02 355.7,43.7 29.5,8.44 60.1,18.06 91.8,28.77 3.4,1.09 -8.6,348.49 -22.5,706.84 -1.4,36.97 -2.9,74.1 -4.3,111 -0.6,15.63 -1.2,31.19 -1.9,46.67 -12.5,316.91 -25,603.18 -27.6,618.58 -6,34.87 -11.6,64.57 -17.8,90.36 -17.9,75.05 -40.1,116.25 -88.5,151.66 -4.7,3.6 -43.5,23.14 -77.7,40.1 -28.3,14.07 -53.4,26.35 -53.4,26.35 h -0.1 c -11.3,-5.47 -24.8,-31.35 -38.9,-67.54 -26.1,-66.84 -54.1,-169.17 -73.7,-245.54 l -0.1,-0.39 v 0 c -12.6,-49.33 -21.6,-87.79 -24.2,-98.81 -4.4,-18.61 -10.1,-54.65 -16.9,-103.5 -9.2,-66.45 -20.1,-156.74 -31.8,-259.15 -1.2,-10.47 -2.4,-21.18 -3.6,-31.89 -1.4,-12.27 -2.8,-24.7 -4.1,-37.29 -0.5,-3.99 -1,-8.05 -1.4,-12.12 -4.4,-40.49 -9,-82.39 -13.4,-124.92 -3.8,-35.17 -57.1,-60.58 -60.7,-96.38 -2.2,-20.95 -6.6,-214.74 -12.3,-276.65 -4.2,-44.1 -1.2,-467.17 0.4,-487.96" /></g><g
         transform="scale(1.27634)"
         id="g664"><path
           id="path666"
           style="fill:#9db0f4;fill-opacity:1;fill-rule:nonzero;stroke:none"
           d="m 16144.3,5003.98 c 0.2,-0.7 9.1,-321.15 -232,-360.09 -241,-38.94 -80.9,-49.2 -80.9,-49.2 0,0 453.6,19.27 461.1,31.26 7.5,11.99 -148.2,378.03 -148.2,378.03" /></g><g
         transform="scale(1.28153)"
         id="g668"><path
           id="path670"
           style="fill:#9db0f4;fill-opacity:1;fill-rule:nonzero;stroke:none"
           d="m 15876.1,4488.06 c 0,0 4.5,-3.2 13.1,-8.74 l 0.4,-0.31 c 36.7,-23.33 145.4,-87.09 303.7,-129.85 16.6,-4.52 33.7,-8.73 51.5,-12.71 -1.5,36.9 -2.9,73.97 -4.3,110.8 20.9,1.64 40.9,4.29 59.5,8.27 -0.6,4.84 -1.3,9.68 -2,14.59 -20.1,8.2 -40.1,16.16 -59.4,23.72 -15.7,6.17 -30.9,12.02 -45.3,17.41 -65,24.73 -113.3,41.43 -113.3,41.43 l -192.4,-60.94 -11.5,-3.67" /></g><g
         transform="scale(1.30175)"
         id="g672"><path
           id="path674"
           style="fill:#aec3ff;fill-opacity:1;fill-rule:nonzero;stroke:none"
           d="m 15579.3,4423.57 c 0,0 24.3,-6.07 63.1,-13.83 l 0.4,-0.08 c 71.5,-14.36 191.6,-34.56 298.9,-33.41 15.8,0.15 31.4,0.77 46.5,1.92 20.6,1.61 40.2,4.22 58.6,8.14 39.2,8.22 72.1,22.28 93.6,44.17 159.6,162.63 -87.1,746.23 -139.1,802.99 -60.5,66.3 -171.1,89.58 -232.1,97.56 -2.6,0.31 -5,0.62 -7.4,0.93 -21.4,2.53 -35.3,3.07 -36,3.07 v 0 c 0,0 4.7,-15.36 12.8,-41.48 3.1,-10.07 6.7,-21.82 10.7,-34.88 37.5,-122.76 109.8,-364.12 141.7,-500.17 11.7,-49.86 17.9,-85.5 15.1,-96.18 -12.5,-46.47 -141.5,-70.36 -223.1,-80.96 -34.1,-4.38 -60,-6.46 -65.8,-6.92 l -1.2,-0.08 -4.7,-19.35 -11.4,-46.56 -11,-45.63 -9.6,-39.25" /></g><g
         transform="scale(1.25242)"
         id="g676"><path
           id="path678"
           style="fill:#f99746;fill-opacity:1;fill-rule:nonzero;stroke:none"
           d="m 15730.1,4307.09 569.9,24.03 -115.6,710.15 -569.9,-24.04 115.6,-710.14" /></g><g
         transform="scale(1.2509)"
         id="g680"><path
           id="path682"
           style="fill:#ffb27d;fill-opacity:1;fill-rule:nonzero;stroke:none"
           d="m 16250.8,4760.33 c 0,0 -111,7.75 -116.6,-18.15 -12.9,-60.36 95.5,-109.92 130.6,-106.57 35.2,3.44 11.6,128.71 -14,124.72" /></g><g
         transform="scale(1.21322)"
         id="g684"><path
           id="path686"
           style="fill:#ffb27d;fill-opacity:1;fill-rule:nonzero;stroke:none"
           d="m 16151.2,5030.5 c 0,0 109.6,34.28 121.4,9.64 27.4,-57.45 -69.6,-133.04 -105.6,-137.98 -36.1,-5.03 -42.3,126.27 -15.8,128.34" /></g><g
         transform="scale(1.26085)"
         id="g688"><path
           id="path690"
           style="fill:#9db0f4;fill-opacity:1;fill-rule:nonzero;stroke:none"
           d="m 16224.5,5543.55 c 0,0 52.3,-9.04 75.5,-42.43 0,0 -179.2,-313.83 -178.4,-311.06 0.7,2.85 58.6,314.94 102.9,353.49" /></g><g
         transform="scale(1.23834)"
         id="g692"><path
           id="path694"
           style="fill:#9db0f4;fill-opacity:1;fill-rule:nonzero;stroke:none"
           d="m 16299.7,5639.95 c -15.6,-5.81 -45.4,-36.34 -52.1,-53.21 l -21,-267.46 c 0,0 44.8,196.23 67.6,284.98 5.8,22.53 4.7,29.4 5.5,35.69" /></g><g
         transform="scale(1.22902)"
         id="g696"><path
           id="path698"
           style="fill:#c65447;fill-opacity:1;fill-rule:nonzero;stroke:none"
           d="m 16300,5129.11 c 0,0 -4.6,20.1 -31,17.82 -26.4,-2.36 -174.9,-9.68 -174.9,-9.68 0,0 -28.7,0.48 -26,-17.91 l 231.9,9.77" /></g></g></g></svg>